<svg width="4626" height="1201" viewBox="0 0 4626 1201" fill="none" xmlns="http://www.w3.org/2000/svg">
<rect x="405.5" y="116.5" width="99" height="923" fill="white" stroke="#0007B3"/>
<rect x="505.5" y="116.5" width="109" height="923" fill="white" stroke="#0007B3"/>
<rect x="625.5" y="116.5" width="139" height="923" fill="white" stroke="#0007B3"/>
<rect x="765.5" y="116.5" width="89" height="923" fill="white" stroke="#0007B3"/>
<rect x="855.5" y="116.5" width="79" height="923" fill="#C1C3FE" stroke="#0007B3"/>
<rect x="935.5" y="116.5" width="109" height="923" fill="#C1C3FE" stroke="#0007B3"/>
<rect x="1055.5" y="116.5" width="79" height="923" fill="#C1C3FE" stroke="#0007B3"/>
<rect x="1135.5" y="116.5" width="109" height="923" fill="#C1C3FE" stroke="#0007B3"/>
<rect x="1045.5" y="116.5" width="9" height="923" fill="#0007B3" stroke="white"/>
<rect x="615" y="116" width="10" height="924" fill="#0007B3"/>
<rect x="1245.5" y="116.5" width="99" height="923" fill="white" stroke="#0007B3"/>
<rect x="1345.5" y="116.5" width="109" height="923" fill="white" stroke="#0007B3"/>
<rect x="1465.5" y="116.5" width="139" height="923" fill="white" stroke="#0007B3"/>
<rect x="1605.5" y="116.5" width="89" height="923" fill="white" stroke="#0007B3"/>
<rect x="1695.5" y="116.5" width="79" height="923" fill="#C1C3FE" stroke="#0007B3"/>
<rect x="1775.5" y="116.5" width="109" height="923" fill="#C1C3FE" stroke="#0007B3"/>
<rect x="1895.5" y="116.5" width="79" height="923" fill="#C1C3FE" stroke="#0007B3"/>
<rect x="1975.5" y="116.5" width="109" height="923" fill="#C1C3FE" stroke="#0007B3"/>
<rect x="1885.5" y="116.5" width="9" height="923" fill="#0007B3" stroke="white"/>
<rect x="1455" y="116" width="10" height="924" fill="#0007B3"/>
<rect x="2085.5" y="116.5" width="99" height="923" fill="white" stroke="#0007B3"/>
<rect x="2185.5" y="116.5" width="109" height="923" fill="white" stroke="#0007B3"/>
<rect x="2305.5" y="116.5" width="139" height="923" fill="white" stroke="#0007B3"/>
<rect x="2445.5" y="116.5" width="89" height="923" fill="white" stroke="#0007B3"/>
<rect x="2535.5" y="116.5" width="79" height="923" fill="#C1C3FE" stroke="#0007B3"/>
<rect x="2615.5" y="116.5" width="109" height="923" fill="#C1C3FE" stroke="#0007B3"/>
<rect x="2735.5" y="116.5" width="79" height="923" fill="#C1C3FE" stroke="#0007B3"/>
<rect x="2815.5" y="116.5" width="109" height="923" fill="#C1C3FE" stroke="#0007B3"/>
<rect x="2725.5" y="116.5" width="9" height="923" fill="#0007B3" stroke="white"/>
<rect x="2295" y="116" width="10" height="924" fill="#0007B3"/>
<rect x="2925.5" y="116.5" width="99" height="923" fill="white" stroke="#0007B3"/>
<rect x="3025.5" y="116.5" width="109" height="923" fill="white" stroke="#0007B3"/>
<rect x="3145.5" y="116.5" width="139" height="923" fill="white" stroke="#0007B3"/>
<rect x="3285.5" y="116.5" width="89" height="923" fill="white" stroke="#0007B3"/>
<rect x="3375.5" y="116.5" width="79" height="923" fill="#C1C3FE" stroke="#0007B3"/>
<rect x="3455.5" y="116.5" width="109" height="923" fill="#C1C3FE" stroke="#0007B3"/>
<rect x="3575.5" y="116.5" width="79" height="923" fill="#C1C3FE" stroke="#0007B3"/>
<rect x="3655.5" y="116.5" width="109" height="923" fill="#C1C3FE" stroke="#0007B3"/>
<rect x="3565.5" y="116.5" width="9" height="923" fill="#0007B3" stroke="white"/>
<rect x="3135" y="116" width="10" height="924" fill="#0007B3"/>
<rect x="3765.5" y="116.5" width="99" height="923" fill="white" stroke="#0007B3"/>
<rect x="3865.5" y="116.5" width="109" height="923" fill="white" stroke="#0007B3"/>
<rect x="3985.5" y="116.5" width="139" height="923" fill="white" stroke="#0007B3"/>
<rect x="4125.5" y="116.5" width="89" height="923" fill="white" stroke="#0007B3"/>
<rect x="4215.5" y="116.5" width="79" height="923" fill="#C1C3FE" stroke="#0007B3"/>
<rect x="4295.5" y="116.5" width="109" height="923" fill="#C1C3FE" stroke="#0007B3"/>
<rect x="4415.5" y="116.5" width="79" height="923" fill="#C1C3FE" stroke="#0007B3"/>
<rect x="4495.5" y="116.5" width="109" height="923" fill="#C1C3FE" stroke="#0007B3"/>
<rect x="4405.5" y="116.5" width="9" height="923" fill="#0007B3" stroke="white"/>
<rect x="3975" y="116" width="10" height="924" fill="#0007B3"/>
<rect x="28" y="232" width="4574" height="116" fill="#D9D9D9" fill-opacity="0.5"/>
<rect x="28" y="923" width="4574" height="116" fill="#D9D9D9" fill-opacity="0.5"/>
<rect x="28" y="692" width="4573" height="116" fill="#D9D9D9" fill-opacity="0.5"/>
<rect x="26" y="462" width="4573" height="116" fill="#D9D9D9" fill-opacity="0.5"/>
<path d="M36.4545 209V139.182H44.9091V170.273H82.1364V139.182H90.5909V209H82.1364V177.773H44.9091V209H36.4545ZM127.699 210.091C122.972 210.091 118.824 208.966 115.256 206.716C111.71 204.466 108.938 201.318 106.938 197.273C104.96 193.227 103.972 188.5 103.972 183.091C103.972 177.636 104.96 172.875 106.938 168.807C108.938 164.739 111.71 161.58 115.256 159.33C118.824 157.08 122.972 155.955 127.699 155.955C132.426 155.955 136.563 157.08 140.108 159.33C143.676 161.58 146.449 164.739 148.426 168.807C150.426 172.875 151.426 177.636 151.426 183.091C151.426 188.5 150.426 193.227 148.426 197.273C146.449 201.318 143.676 204.466 140.108 206.716C136.563 208.966 132.426 210.091 127.699 210.091ZM127.699 202.864C131.29 202.864 134.244 201.943 136.562 200.102C138.881 198.261 140.597 195.841 141.71 192.841C142.824 189.841 143.381 186.591 143.381 183.091C143.381 179.591 142.824 176.33 141.71 173.307C140.597 170.284 138.881 167.841 136.562 165.977C134.244 164.114 131.29 163.182 127.699 163.182C124.108 163.182 121.153 164.114 118.835 165.977C116.517 167.841 114.801 170.284 113.688 173.307C112.574 176.33 112.017 179.591 112.017 183.091C112.017 186.591 112.574 189.841 113.688 192.841C114.801 195.841 116.517 198.261 118.835 200.102C121.153 201.943 124.108 202.864 127.699 202.864ZM171.753 139.182V209H163.707V139.182H171.753ZM184.989 209V202.864L214.716 164.682V164.136H185.943V156.636H225.08V163.045L196.17 200.955V201.5H226.034V209H184.989ZM238.426 209V156.636H246.199V164.818H246.881C247.972 162.023 249.733 159.852 252.165 158.307C254.597 156.739 257.517 155.955 260.926 155.955C264.381 155.955 267.256 156.739 269.551 158.307C271.869 159.852 273.676 162.023 274.972 164.818H275.517C276.858 162.114 278.869 159.966 281.551 158.375C284.233 156.761 287.449 155.955 291.199 155.955C295.881 155.955 299.71 157.42 302.688 160.352C305.665 163.261 307.153 167.795 307.153 173.955V209H299.108V173.955C299.108 170.091 298.051 167.33 295.938 165.67C293.824 164.011 291.335 163.182 288.472 163.182C284.79 163.182 281.938 164.295 279.915 166.523C277.892 168.727 276.881 171.523 276.881 174.909V209H268.699V173.136C268.699 170.159 267.733 167.761 265.801 165.943C263.869 164.102 261.381 163.182 258.335 163.182C256.244 163.182 254.29 163.739 252.472 164.852C250.676 165.966 249.222 167.511 248.108 169.489C247.017 171.443 246.472 173.705 246.472 176.273V209H238.426ZM337.273 210.227C333.955 210.227 330.943 209.602 328.239 208.352C325.534 207.08 323.386 205.25 321.795 202.864C320.205 200.455 319.409 197.545 319.409 194.136C319.409 191.136 320 188.705 321.182 186.841C322.364 184.955 323.943 183.477 325.92 182.409C327.898 181.341 330.08 180.545 332.466 180.023C334.875 179.477 337.295 179.045 339.727 178.727C342.909 178.318 345.489 178.011 347.466 177.807C349.466 177.58 350.92 177.205 351.83 176.682C352.761 176.159 353.227 175.25 353.227 173.955V173.682C353.227 170.318 352.307 167.705 350.466 165.841C348.648 163.977 345.886 163.045 342.182 163.045C338.341 163.045 335.33 163.886 333.148 165.568C330.966 167.25 329.432 169.045 328.545 170.955L320.909 168.227C322.273 165.045 324.091 162.568 326.364 160.795C328.659 159 331.159 157.75 333.864 157.045C336.591 156.318 339.273 155.955 341.909 155.955C343.591 155.955 345.523 156.159 347.705 156.568C349.909 156.955 352.034 157.761 354.08 158.989C356.148 160.216 357.864 162.068 359.227 164.545C360.591 167.023 361.273 170.341 361.273 174.5V209H353.227V201.909H352.818C352.273 203.045 351.364 204.261 350.091 205.557C348.818 206.852 347.125 207.955 345.011 208.864C342.898 209.773 340.318 210.227 337.273 210.227ZM338.5 203C341.682 203 344.364 202.375 346.545 201.125C348.75 199.875 350.409 198.261 351.523 196.284C352.659 194.307 353.227 192.227 353.227 190.045V182.682C352.886 183.091 352.136 183.466 350.977 183.807C349.841 184.125 348.523 184.409 347.023 184.659C345.545 184.886 344.102 185.091 342.693 185.273C341.307 185.432 340.182 185.568 339.318 185.682C337.227 185.955 335.273 186.398 333.455 187.011C331.659 187.602 330.205 188.5 329.091 189.705C328 190.886 327.455 192.5 327.455 194.545C327.455 197.341 328.489 199.455 330.557 200.886C332.648 202.295 335.295 203 338.5 203Z" fill="#0007B3"/>
<path d="M560.195 23.1818V93H551.74V32.0455H551.331L534.286 43.3636V34.7727L551.74 23.1818H560.195ZM601.683 94.0909C596.774 94.0909 592.547 92.9318 589.001 90.6136C585.456 88.2955 582.729 85.1023 580.82 81.0341C578.911 76.9659 577.956 72.3182 577.956 67.0909C577.956 61.7727 578.933 57.0795 580.888 53.0114C582.865 48.9205 585.615 45.7273 589.138 43.4318C592.683 41.1136 596.82 39.9545 601.547 39.9545C605.229 39.9545 608.547 40.6364 611.501 42C614.456 43.3636 616.876 45.2727 618.763 47.7273C620.649 50.1818 621.82 53.0455 622.274 56.3182H614.229C613.615 53.9318 612.251 51.8182 610.138 49.9773C608.047 48.1136 605.229 47.1818 601.683 47.1818C598.547 47.1818 595.797 48 593.433 49.6364C591.092 51.25 589.263 53.5341 587.945 56.4886C586.649 59.4205 586.001 62.8636 586.001 66.8182C586.001 70.8636 586.638 74.3864 587.911 77.3864C589.206 80.3864 591.024 82.7159 593.365 84.375C595.729 86.0341 598.501 86.8636 601.683 86.8636C603.774 86.8636 605.672 86.5 607.376 85.7727C609.081 85.0455 610.524 84 611.706 82.6364C612.888 81.2727 613.729 79.6364 614.229 77.7273H622.274C621.82 80.8182 620.695 83.6023 618.899 86.0795C617.126 88.5341 614.774 90.4886 611.842 91.9432C608.933 93.375 605.547 94.0909 601.683 94.0909ZM662.672 82.0909L680.945 40.6364H688.581L665.945 93H659.399L637.172 40.6364H644.672L662.672 82.0909ZM642.081 40.6364V93H634.036V40.6364H642.081ZM683.263 93V40.6364H691.308V93H683.263ZM813.354 23.1818V93H804.899V30.6818H769.717V93H761.263V23.1818H813.354ZM864.362 63.1364V70.6364H835.453V63.1364H864.362ZM837.362 40.6364V93H829.317V40.6364H837.362ZM870.499 40.6364V93H862.453V40.6364H870.499ZM939.055 93V86.8636L962.101 61.6364C964.805 58.6818 967.033 56.1136 968.783 53.9318C970.533 51.7273 971.828 49.6591 972.669 47.7273C973.533 45.7727 973.964 43.7273 973.964 41.5909C973.964 39.1364 973.374 37.0114 972.192 35.2159C971.033 33.4205 969.442 32.0341 967.419 31.0568C965.396 30.0795 963.124 29.5909 960.601 29.5909C957.919 29.5909 955.578 30.1477 953.578 31.2614C951.601 32.3523 950.067 33.8864 948.976 35.8636C947.908 37.8409 947.374 40.1591 947.374 42.8182H939.328C939.328 38.7273 940.271 35.1364 942.158 32.0455C944.044 28.9545 946.612 26.5455 949.862 24.8182C953.135 23.0909 956.805 22.2273 960.874 22.2273C964.964 22.2273 968.589 23.0909 971.749 24.8182C974.908 26.5455 977.385 28.875 979.18 31.8068C980.976 34.7386 981.874 38 981.874 41.5909C981.874 44.1591 981.408 46.6705 980.476 49.125C979.567 51.5568 977.976 54.2727 975.703 57.2727C973.453 60.25 970.328 63.8864 966.328 68.1818L950.646 84.9545V85.5H983.101V93H939.055ZM1018.59 94.0909C1013.68 94.0909 1009.45 92.9318 1005.91 90.6136C1002.36 88.2955 999.635 85.1023 997.726 81.0341C995.817 76.9659 994.862 72.3182 994.862 67.0909C994.862 61.7727 995.839 57.0795 997.794 53.0114C999.771 48.9205 1002.52 45.7273 1006.04 43.4318C1009.59 41.1136 1013.73 39.9545 1018.45 39.9545C1022.13 39.9545 1025.45 40.6364 1028.41 42C1031.36 43.3636 1033.78 45.2727 1035.67 47.7273C1037.56 50.1818 1038.73 53.0455 1039.18 56.3182H1031.13C1030.52 53.9318 1029.16 51.8182 1027.04 49.9773C1024.95 48.1136 1022.13 47.1818 1018.59 47.1818C1015.45 47.1818 1012.7 48 1010.34 49.6364C1008 51.25 1006.17 53.5341 1004.85 56.4886C1003.56 59.4205 1002.91 62.8636 1002.91 66.8182C1002.91 70.8636 1003.54 74.3864 1004.82 77.3864C1006.11 80.3864 1007.93 82.7159 1010.27 84.375C1012.63 86.0341 1015.41 86.8636 1018.59 86.8636C1020.68 86.8636 1022.58 86.5 1024.28 85.7727C1025.99 85.0455 1027.43 84 1028.61 82.6364C1029.79 81.2727 1030.63 79.6364 1031.13 77.7273H1039.18C1038.73 80.8182 1037.6 83.6023 1035.81 86.0795C1034.03 88.5341 1031.68 90.4886 1028.75 91.9432C1025.84 93.375 1022.45 94.0909 1018.59 94.0909ZM1079.58 82.0909L1097.85 40.6364H1105.49L1082.85 93H1076.31L1054.08 40.6364H1061.58L1079.58 82.0909ZM1058.99 40.6364V93H1050.94V40.6364H1058.99ZM1100.17 93V40.6364H1108.21V93H1100.17Z" fill="#0007B3"/>
<path d="M3922.49 23.1818V93H3914.04V32.0455H3913.63L3896.58 43.3636V34.7727L3914.04 23.1818H3922.49ZM3963.98 94.0909C3959.07 94.0909 3954.84 92.9318 3951.3 90.6136C3947.75 88.2955 3945.03 85.1023 3943.12 81.0341C3941.21 76.9659 3940.25 72.3182 3940.25 67.0909C3940.25 61.7727 3941.23 57.0795 3943.18 53.0114C3945.16 48.9205 3947.91 45.7273 3951.43 43.4318C3954.98 41.1136 3959.12 39.9545 3963.84 39.9545C3967.53 39.9545 3970.84 40.6364 3973.8 42C3976.75 43.3636 3979.17 45.2727 3981.06 47.7273C3982.95 50.1818 3984.12 53.0455 3984.57 56.3182H3976.53C3975.91 53.9318 3974.55 51.8182 3972.43 49.9773C3970.34 48.1136 3967.53 47.1818 3963.98 47.1818C3960.84 47.1818 3958.09 48 3955.73 49.6364C3953.39 51.25 3951.56 53.5341 3950.24 56.4886C3948.95 59.4205 3948.3 62.8636 3948.3 66.8182C3948.3 70.8636 3948.93 74.3864 3950.21 77.3864C3951.5 80.3864 3953.32 82.7159 3955.66 84.375C3958.03 86.0341 3960.8 86.8636 3963.98 86.8636C3966.07 86.8636 3967.97 86.5 3969.67 85.7727C3971.38 85.0455 3972.82 84 3974 82.6364C3975.18 81.2727 3976.03 79.6364 3976.53 77.7273H3984.57C3984.12 80.8182 3982.99 83.6023 3981.2 86.0795C3979.42 88.5341 3977.07 90.4886 3974.14 91.9432C3971.23 93.375 3967.84 94.0909 3963.98 94.0909ZM4024.97 82.0909L4043.24 40.6364H4050.88L4028.24 93H4021.7L3999.47 40.6364H4006.97L4024.97 82.0909ZM4004.38 40.6364V93H3996.33V40.6364H4004.38ZM4045.56 93V40.6364H4053.61V93H4045.56ZM4175.65 23.1818V93H4167.2V30.6818H4132.01V93H4123.56V23.1818H4175.65ZM4188.61 48.1364V40.6364H4231.16V48.1364H4213.98V93H4205.93V48.1364H4188.61ZM4296.76 93V86.8636L4319.8 61.6364C4322.51 58.6818 4324.74 56.1136 4326.49 53.9318C4328.24 51.7273 4329.53 49.6591 4330.37 47.7273C4331.24 45.7727 4331.67 43.7273 4331.67 41.5909C4331.67 39.1364 4331.08 37.0114 4329.89 35.2159C4328.74 33.4205 4327.14 32.0341 4325.12 31.0568C4323.1 30.0795 4320.83 29.5909 4318.3 29.5909C4315.62 29.5909 4313.28 30.1477 4311.28 31.2614C4309.3 32.3523 4307.77 33.8864 4306.68 35.8636C4305.61 37.8409 4305.08 40.1591 4305.08 42.8182H4297.03C4297.03 38.7273 4297.97 35.1364 4299.86 32.0455C4301.75 28.9545 4304.32 26.5455 4307.57 24.8182C4310.84 23.0909 4314.51 22.2273 4318.58 22.2273C4322.67 22.2273 4326.29 23.0909 4329.45 24.8182C4332.61 26.5455 4335.09 28.875 4336.88 31.8068C4338.68 34.7386 4339.58 38 4339.58 41.5909C4339.58 44.1591 4339.11 46.6705 4338.18 49.125C4337.27 51.5568 4335.68 54.2727 4333.41 57.2727C4331.16 60.25 4328.03 63.8864 4324.03 68.1818L4308.35 84.9545V85.5H4340.8V93H4296.76ZM4376.29 94.0909C4371.38 94.0909 4367.16 92.9318 4363.61 90.6136C4360.07 88.2955 4357.34 85.1023 4355.43 81.0341C4353.52 76.9659 4352.57 72.3182 4352.57 67.0909C4352.57 61.7727 4353.54 57.0795 4355.5 53.0114C4357.47 48.9205 4360.22 45.7273 4363.75 43.4318C4367.29 41.1136 4371.43 39.9545 4376.16 39.9545C4379.84 39.9545 4383.16 40.6364 4386.11 42C4389.07 43.3636 4391.49 45.2727 4393.37 47.7273C4395.26 50.1818 4396.43 53.0455 4396.88 56.3182H4388.84C4388.22 53.9318 4386.86 51.8182 4384.75 49.9773C4382.66 48.1136 4379.84 47.1818 4376.29 47.1818C4373.16 47.1818 4370.41 48 4368.04 49.6364C4365.7 51.25 4363.87 53.5341 4362.55 56.4886C4361.26 59.4205 4360.61 62.8636 4360.61 66.8182C4360.61 70.8636 4361.25 74.3864 4362.52 77.3864C4363.82 80.3864 4365.63 82.7159 4367.97 84.375C4370.34 86.0341 4373.11 86.8636 4376.29 86.8636C4378.38 86.8636 4380.28 86.5 4381.99 85.7727C4383.69 85.0455 4385.13 84 4386.32 82.6364C4387.5 81.2727 4388.34 79.6364 4388.84 77.7273H4396.88C4396.43 80.8182 4395.3 83.6023 4393.51 86.0795C4391.74 88.5341 4389.38 90.4886 4386.45 91.9432C4383.54 93.375 4380.16 94.0909 4376.29 94.0909ZM4437.28 82.0909L4455.55 40.6364H4463.19L4440.55 93H4434.01L4411.78 40.6364H4419.28L4437.28 82.0909ZM4416.69 40.6364V93H4408.64V40.6364H4416.69ZM4457.87 93V40.6364H4465.92V93H4457.87Z" fill="#0007B3"/>
<path d="M3082.82 23.1818V93H3074.37V32.0455H3073.96L3056.91 43.3636V34.7727L3074.37 23.1818H3082.82ZM3124.31 94.0909C3119.4 94.0909 3115.17 92.9318 3111.63 90.6136C3108.08 88.2955 3105.35 85.1023 3103.44 81.0341C3101.54 76.9659 3100.58 72.3182 3100.58 67.0909C3100.58 61.7727 3101.56 57.0795 3103.51 53.0114C3105.49 48.9205 3108.24 45.7273 3111.76 43.4318C3115.31 41.1136 3119.44 39.9545 3124.17 39.9545C3127.85 39.9545 3131.17 40.6364 3134.13 42C3137.08 43.3636 3139.5 45.2727 3141.39 47.7273C3143.27 50.1818 3144.44 53.0455 3144.9 56.3182H3136.85C3136.24 53.9318 3134.88 51.8182 3132.76 49.9773C3130.67 48.1136 3127.85 47.1818 3124.31 47.1818C3121.17 47.1818 3118.42 48 3116.06 49.6364C3113.72 51.25 3111.89 53.5341 3110.57 56.4886C3109.27 59.4205 3108.63 62.8636 3108.63 66.8182C3108.63 70.8636 3109.26 74.3864 3110.54 77.3864C3111.83 80.3864 3113.65 82.7159 3115.99 84.375C3118.35 86.0341 3121.13 86.8636 3124.31 86.8636C3126.4 86.8636 3128.3 86.5 3130 85.7727C3131.71 85.0455 3133.15 84 3134.33 82.6364C3135.51 81.2727 3136.35 79.6364 3136.85 77.7273H3144.9C3144.44 80.8182 3143.32 83.6023 3141.52 86.0795C3139.75 88.5341 3137.4 90.4886 3134.47 91.9432C3131.56 93.375 3128.17 94.0909 3124.31 94.0909ZM3185.3 82.0909L3203.57 40.6364H3211.21L3188.57 93H3182.02L3159.8 40.6364H3167.3L3185.3 82.0909ZM3164.71 40.6364V93H3156.66V40.6364H3164.71ZM3205.89 93V40.6364H3213.93V93H3205.89ZM3284.43 23.1818H3292.89V46.5C3292.89 49.9545 3293.49 52.6705 3294.69 54.6477C3295.9 56.6023 3297.6 57.9886 3299.81 58.8068C3302.01 59.6023 3304.62 60 3307.62 60C3309.5 60 3311.33 59.9318 3313.1 59.7955C3314.88 59.6364 3316.6 59.4205 3318.29 59.1477C3319.99 58.875 3321.65 58.5455 3323.26 58.1591C3324.9 57.7727 3326.5 57.3409 3328.07 56.8636V64.5C3326.55 64.9773 3325.04 65.4091 3323.54 65.7955C3322.06 66.1818 3320.51 66.5114 3318.9 66.7841C3317.31 67.0568 3315.59 67.2727 3313.75 67.4318C3311.91 67.5682 3309.87 67.6364 3307.62 67.6364C3302.8 67.6364 3298.65 66.9432 3295.17 65.5568C3291.72 64.1705 3289.06 61.9318 3287.19 58.8409C3285.35 55.75 3284.43 51.6364 3284.43 46.5V23.1818ZM3326.98 23.1818H3335.43V93H3326.98V23.1818ZM3348.29 48.1364V40.6364H3390.83V48.1364H3373.65V93H3365.6V48.1364H3348.29ZM3456.43 93V86.8636L3479.48 61.6364C3482.18 58.6818 3484.41 56.1136 3486.16 53.9318C3487.91 51.7273 3489.2 49.6591 3490.04 47.7273C3490.91 45.7727 3491.34 43.7273 3491.34 41.5909C3491.34 39.1364 3490.75 37.0114 3489.57 35.2159C3488.41 33.4205 3486.82 32.0341 3484.79 31.0568C3482.77 30.0795 3480.5 29.5909 3477.98 29.5909C3475.29 29.5909 3472.95 30.1477 3470.95 31.2614C3468.98 32.3523 3467.44 33.8864 3466.35 35.8636C3465.28 37.8409 3464.75 40.1591 3464.75 42.8182H3456.7C3456.7 38.7273 3457.65 35.1364 3459.53 32.0455C3461.42 28.9545 3463.99 26.5455 3467.24 24.8182C3470.51 23.0909 3474.18 22.2273 3478.25 22.2273C3482.34 22.2273 3485.96 23.0909 3489.12 24.8182C3492.28 26.5455 3494.76 28.875 3496.56 31.8068C3498.35 34.7386 3499.25 38 3499.25 41.5909C3499.25 44.1591 3498.78 46.6705 3497.85 49.125C3496.94 51.5568 3495.35 54.2727 3493.08 57.2727C3490.83 60.25 3487.7 63.8864 3483.7 68.1818L3468.02 84.9545V85.5H3500.48V93H3456.43ZM3535.96 94.0909C3531.06 94.0909 3526.83 92.9318 3523.28 90.6136C3519.74 88.2955 3517.01 85.1023 3515.1 81.0341C3513.19 76.9659 3512.24 72.3182 3512.24 67.0909C3512.24 61.7727 3513.21 57.0795 3515.17 53.0114C3517.15 48.9205 3519.9 45.7273 3523.42 43.4318C3526.96 41.1136 3531.1 39.9545 3535.83 39.9545C3539.51 39.9545 3542.83 40.6364 3545.78 42C3548.74 43.3636 3551.16 45.2727 3553.04 47.7273C3554.93 50.1818 3556.1 53.0455 3556.56 56.3182H3548.51C3547.9 53.9318 3546.53 51.8182 3544.42 49.9773C3542.33 48.1136 3539.51 47.1818 3535.96 47.1818C3532.83 47.1818 3530.08 48 3527.71 49.6364C3525.37 51.25 3523.54 53.5341 3522.23 56.4886C3520.93 59.4205 3520.28 62.8636 3520.28 66.8182C3520.28 70.8636 3520.92 74.3864 3522.19 77.3864C3523.49 80.3864 3525.31 82.7159 3527.65 84.375C3530.01 86.0341 3532.78 86.8636 3535.96 86.8636C3538.06 86.8636 3539.95 86.5 3541.66 85.7727C3543.36 85.0455 3544.81 84 3545.99 82.6364C3547.17 81.2727 3548.01 79.6364 3548.51 77.7273H3556.56C3556.1 80.8182 3554.98 83.6023 3553.18 86.0795C3551.41 88.5341 3549.06 90.4886 3546.12 91.9432C3543.21 93.375 3539.83 94.0909 3535.96 94.0909ZM3596.95 82.0909L3615.23 40.6364H3622.86L3600.23 93H3593.68L3571.45 40.6364H3578.95L3596.95 82.0909ZM3576.36 40.6364V93H3568.32V40.6364H3576.36ZM3617.54 93V40.6364H3625.59V93H3617.54Z" fill="#0007B3"/>
<path d="M2238.6 23.1818V93H2230.15V32.0455H2229.74L2212.69 43.3636V34.7727L2230.15 23.1818H2238.6ZM2280.09 94.0909C2275.18 94.0909 2270.95 92.9318 2267.41 90.6136C2263.86 88.2955 2261.13 85.1023 2259.23 81.0341C2257.32 76.9659 2256.36 72.3182 2256.36 67.0909C2256.36 61.7727 2257.34 57.0795 2259.29 53.0114C2261.27 48.9205 2264.02 45.7273 2267.54 43.4318C2271.09 41.1136 2275.23 39.9545 2279.95 39.9545C2283.63 39.9545 2286.95 40.6364 2289.91 42C2292.86 43.3636 2295.28 45.2727 2297.17 47.7273C2299.06 50.1818 2300.23 53.0455 2300.68 56.3182H2292.63C2292.02 53.9318 2290.66 51.8182 2288.54 49.9773C2286.45 48.1136 2283.63 47.1818 2280.09 47.1818C2276.95 47.1818 2274.2 48 2271.84 49.6364C2269.5 51.25 2267.67 53.5341 2266.35 56.4886C2265.06 59.4205 2264.41 62.8636 2264.41 66.8182C2264.41 70.8636 2265.04 74.3864 2266.32 77.3864C2267.61 80.3864 2269.43 82.7159 2271.77 84.375C2274.13 86.0341 2276.91 86.8636 2280.09 86.8636C2282.18 86.8636 2284.08 86.5 2285.78 85.7727C2287.49 85.0455 2288.93 84 2290.11 82.6364C2291.29 81.2727 2292.13 79.6364 2292.63 77.7273H2300.68C2300.23 80.8182 2299.1 83.6023 2297.31 86.0795C2295.53 88.5341 2293.18 90.4886 2290.25 91.9432C2287.34 93.375 2283.95 94.0909 2280.09 94.0909ZM2341.08 82.0909L2359.35 40.6364H2366.99L2344.35 93H2337.81L2315.58 40.6364H2323.08L2341.08 82.0909ZM2320.49 40.6364V93H2312.44V40.6364H2320.49ZM2361.67 93V40.6364H2369.71V93H2361.67ZM2495.71 45H2487.26C2486.76 42.5682 2485.88 40.4318 2484.63 38.5909C2483.41 36.75 2481.91 35.2045 2480.13 33.9545C2478.38 32.6818 2476.44 31.7273 2474.31 31.0909C2472.17 30.4545 2469.94 30.1364 2467.62 30.1364C2463.4 30.1364 2459.57 31.2045 2456.13 33.3409C2452.73 35.4773 2450.01 38.625 2447.99 42.7841C2445.99 46.9432 2444.99 52.0455 2444.99 58.0909C2444.99 64.1364 2445.99 69.2386 2447.99 73.3977C2450.01 77.5568 2452.73 80.7045 2456.13 82.8409C2459.57 84.9773 2463.4 86.0455 2467.62 86.0455C2469.94 86.0455 2472.17 85.7273 2474.31 85.0909C2476.44 84.4545 2478.38 83.5114 2480.13 82.2614C2481.91 80.9886 2483.41 79.4318 2484.63 77.5909C2485.88 75.7273 2486.76 73.5909 2487.26 71.1818H2495.71C2495.08 74.75 2493.92 77.9432 2492.24 80.7614C2490.56 83.5795 2488.46 85.9773 2485.96 87.9545C2483.46 89.9091 2480.66 91.3977 2477.54 92.4205C2474.45 93.4432 2471.15 93.9545 2467.62 93.9545C2461.67 93.9545 2456.37 92.5 2451.74 89.5909C2447.1 86.6818 2443.45 82.5455 2440.79 77.1818C2438.13 71.8182 2436.81 65.4545 2436.81 58.0909C2436.81 50.7273 2438.13 44.3636 2440.79 39C2443.45 33.6364 2447.1 29.5 2451.74 26.5909C2456.37 23.6818 2461.67 22.2273 2467.62 22.2273C2471.15 22.2273 2474.45 22.7386 2477.54 23.7614C2480.66 24.7841 2483.46 26.2841 2485.96 28.2614C2488.46 30.2159 2490.56 32.6023 2492.24 35.4205C2493.92 38.2159 2495.08 41.4091 2495.71 45ZM2508.29 112.636V40.6364H2516.06V48.9545H2517.01C2517.6 48.0455 2518.42 46.8864 2519.47 45.4773C2520.54 44.0455 2522.06 42.7727 2524.04 41.6591C2526.04 40.5227 2528.74 39.9545 2532.15 39.9545C2536.56 39.9545 2540.44 41.0568 2543.81 43.2614C2547.17 45.4659 2549.8 48.5909 2551.68 52.6364C2553.57 56.6818 2554.51 61.4545 2554.51 66.9545C2554.51 72.5 2553.57 77.3068 2551.68 81.375C2549.8 85.4205 2547.18 88.5568 2543.84 90.7841C2540.5 92.9886 2536.65 94.0909 2532.29 94.0909C2528.92 94.0909 2526.23 93.5341 2524.21 92.4205C2522.18 91.2841 2520.63 90 2519.54 88.5682C2518.44 87.1136 2517.6 85.9091 2517.01 84.9545H2516.33V112.636H2508.29ZM2516.19 66.8182C2516.19 70.7727 2516.77 74.2614 2517.93 77.2841C2519.09 80.2841 2520.79 82.6364 2523.01 84.3409C2525.24 86.0227 2527.97 86.8636 2531.19 86.8636C2534.56 86.8636 2537.37 85.9773 2539.62 84.2045C2541.89 82.4091 2543.59 80 2544.73 76.9773C2545.89 73.9318 2546.47 70.5455 2546.47 66.8182C2546.47 63.1364 2545.9 59.8182 2544.76 56.8636C2543.65 53.8864 2541.96 51.5341 2539.68 49.8068C2537.43 48.0568 2534.6 47.1818 2531.19 47.1818C2527.92 47.1818 2525.17 48.0114 2522.94 49.6705C2520.72 51.3068 2519.04 53.6023 2517.9 56.5568C2516.76 59.4886 2516.19 62.9091 2516.19 66.8182ZM2620.65 93V86.8636L2643.69 61.6364C2646.4 58.6818 2648.63 56.1136 2650.38 53.9318C2652.13 51.7273 2653.42 49.6591 2654.26 47.7273C2655.13 45.7727 2655.56 43.7273 2655.56 41.5909C2655.56 39.1364 2654.97 37.0114 2653.79 35.2159C2652.63 33.4205 2651.04 32.0341 2649.01 31.0568C2646.99 30.0795 2644.72 29.5909 2642.19 29.5909C2639.51 29.5909 2637.17 30.1477 2635.17 31.2614C2633.19 32.3523 2631.66 33.8864 2630.57 35.8636C2629.5 37.8409 2628.97 40.1591 2628.97 42.8182H2620.92C2620.92 38.7273 2621.87 35.1364 2623.75 32.0455C2625.64 28.9545 2628.21 26.5455 2631.46 24.8182C2634.73 23.0909 2638.4 22.2273 2642.47 22.2273C2646.56 22.2273 2650.18 23.0909 2653.34 24.8182C2656.5 26.5455 2658.98 28.875 2660.77 31.8068C2662.57 34.7386 2663.47 38 2663.47 41.5909C2663.47 44.1591 2663 46.6705 2662.07 49.125C2661.16 51.5568 2659.57 54.2727 2657.3 57.2727C2655.05 60.25 2651.92 63.8864 2647.92 68.1818L2632.24 84.9545V85.5H2664.69V93H2620.65ZM2700.18 94.0909C2695.27 94.0909 2691.05 92.9318 2687.5 90.6136C2683.96 88.2955 2681.23 85.1023 2679.32 81.0341C2677.41 76.9659 2676.46 72.3182 2676.46 67.0909C2676.46 61.7727 2677.43 57.0795 2679.39 53.0114C2681.37 48.9205 2684.12 45.7273 2687.64 43.4318C2691.18 41.1136 2695.32 39.9545 2700.05 39.9545C2703.73 39.9545 2707.05 40.6364 2710 42C2712.96 43.3636 2715.38 45.2727 2717.26 47.7273C2719.15 50.1818 2720.32 53.0455 2720.77 56.3182H2712.73C2712.12 53.9318 2710.75 51.8182 2708.64 49.9773C2706.55 48.1136 2703.73 47.1818 2700.18 47.1818C2697.05 47.1818 2694.3 48 2691.93 49.6364C2689.59 51.25 2687.76 53.5341 2686.44 56.4886C2685.15 59.4205 2684.5 62.8636 2684.5 66.8182C2684.5 70.8636 2685.14 74.3864 2686.41 77.3864C2687.71 80.3864 2689.52 82.7159 2691.87 84.375C2694.23 86.0341 2697 86.8636 2700.18 86.8636C2702.27 86.8636 2704.17 86.5 2705.88 85.7727C2707.58 85.0455 2709.02 84 2710.21 82.6364C2711.39 81.2727 2712.23 79.6364 2712.73 77.7273H2720.77C2720.32 80.8182 2719.19 83.6023 2717.4 86.0795C2715.63 88.5341 2713.27 90.4886 2710.34 91.9432C2707.43 93.375 2704.05 94.0909 2700.18 94.0909ZM2761.17 82.0909L2779.44 40.6364H2787.08L2764.44 93H2757.9L2735.67 40.6364H2743.17L2761.17 82.0909ZM2740.58 40.6364V93H2732.54V40.6364H2740.58ZM2781.76 93V40.6364H2789.81V93H2781.76Z" fill="#0007B3"/>
<path d="M1405.91 23.1818V93H1397.46V32.0455H1397.05L1380 43.3636V34.7727L1397.46 23.1818H1405.91ZM1447.4 94.0909C1442.49 94.0909 1438.27 92.9318 1434.72 90.6136C1431.17 88.2955 1428.45 85.1023 1426.54 81.0341C1424.63 76.9659 1423.67 72.3182 1423.67 67.0909C1423.67 61.7727 1424.65 57.0795 1426.61 53.0114C1428.58 48.9205 1431.33 45.7273 1434.86 43.4318C1438.4 41.1136 1442.54 39.9545 1447.27 39.9545C1450.95 39.9545 1454.27 40.6364 1457.22 42C1460.17 43.3636 1462.6 45.2727 1464.48 47.7273C1466.37 50.1818 1467.54 53.0455 1467.99 56.3182H1459.95C1459.33 53.9318 1457.97 51.8182 1455.86 49.9773C1453.77 48.1136 1450.95 47.1818 1447.4 47.1818C1444.27 47.1818 1441.52 48 1439.15 49.6364C1436.81 51.25 1434.98 53.5341 1433.66 56.4886C1432.37 59.4205 1431.72 62.8636 1431.72 66.8182C1431.72 70.8636 1432.36 74.3864 1433.63 77.3864C1434.92 80.3864 1436.74 82.7159 1439.08 84.375C1441.45 86.0341 1444.22 86.8636 1447.4 86.8636C1449.49 86.8636 1451.39 86.5 1453.1 85.7727C1454.8 85.0455 1456.24 84 1457.42 82.6364C1458.61 81.2727 1459.45 79.6364 1459.95 77.7273H1467.99C1467.54 80.8182 1466.41 83.6023 1464.62 86.0795C1462.85 88.5341 1460.49 90.4886 1457.56 91.9432C1454.65 93.375 1451.27 94.0909 1447.4 94.0909ZM1508.39 82.0909L1526.66 40.6364H1534.3L1511.66 93H1505.12L1482.89 40.6364H1490.39L1508.39 82.0909ZM1487.8 40.6364V93H1479.75V40.6364H1487.8ZM1528.98 93V40.6364H1537.03V93H1528.98ZM1606.85 93V23.1818H1631.25C1636.12 23.1818 1640.13 24.0227 1643.29 25.7045C1646.45 27.3636 1648.8 29.6023 1650.35 32.4205C1651.89 35.2159 1652.66 38.3182 1652.66 41.7273C1652.66 44.7273 1652.13 47.2045 1651.06 49.1591C1650.02 51.1136 1648.63 52.6591 1646.9 53.7955C1645.2 54.9318 1643.35 55.7727 1641.35 56.3182V57C1643.48 57.1364 1645.63 57.8864 1647.79 59.25C1649.95 60.6136 1651.75 62.5682 1653.21 65.1136C1654.66 67.6591 1655.39 70.7727 1655.39 74.4545C1655.39 77.9545 1654.6 81.1023 1653 83.8977C1651.41 86.6932 1648.9 88.9091 1645.47 90.5455C1642.04 92.1818 1637.57 93 1632.07 93H1606.85ZM1615.3 85.5H1632.07C1637.6 85.5 1641.52 84.4318 1643.83 82.2955C1646.17 80.1364 1647.35 77.5227 1647.35 74.4545C1647.35 72.0909 1646.74 69.9091 1645.54 67.9091C1644.33 65.8864 1642.62 64.2727 1640.39 63.0682C1638.16 61.8409 1635.53 61.2273 1632.48 61.2273H1615.3V85.5ZM1615.3 53.8636H1630.98C1633.53 53.8636 1635.82 53.3636 1637.87 52.3636C1639.94 51.3636 1641.57 49.9545 1642.78 48.1364C1644 46.3182 1644.62 44.1818 1644.62 41.7273C1644.62 38.6591 1643.55 36.0568 1641.41 33.9205C1639.28 31.7614 1635.89 30.6818 1631.25 30.6818H1615.3V53.8636ZM1665.19 48.1364V40.6364H1707.74V48.1364H1690.56V93H1682.51V48.1364H1665.19ZM1773.34 93V86.8636L1796.38 61.6364C1799.09 58.6818 1801.31 56.1136 1803.06 53.9318C1804.81 51.7273 1806.11 49.6591 1806.95 47.7273C1807.81 45.7727 1808.25 43.7273 1808.25 41.5909C1808.25 39.1364 1807.65 37.0114 1806.47 35.2159C1805.31 33.4205 1803.72 32.0341 1801.7 31.0568C1799.68 30.0795 1797.4 29.5909 1794.88 29.5909C1792.2 29.5909 1789.86 30.1477 1787.86 31.2614C1785.88 32.3523 1784.35 33.8864 1783.26 35.8636C1782.19 37.8409 1781.65 40.1591 1781.65 42.8182H1773.61C1773.61 38.7273 1774.55 35.1364 1776.44 32.0455C1778.33 28.9545 1780.89 26.5455 1784.14 24.8182C1787.42 23.0909 1791.09 22.2273 1795.15 22.2273C1799.25 22.2273 1802.87 23.0909 1806.03 24.8182C1809.19 26.5455 1811.67 28.875 1813.46 31.8068C1815.26 34.7386 1816.15 38 1816.15 41.5909C1816.15 44.1591 1815.69 46.6705 1814.76 49.125C1813.85 51.5568 1812.26 54.2727 1809.98 57.2727C1807.73 60.25 1804.61 63.8864 1800.61 68.1818L1784.93 84.9545V85.5H1817.38V93H1773.34ZM1852.87 94.0909C1847.96 94.0909 1843.73 92.9318 1840.19 90.6136C1836.64 88.2955 1833.92 85.1023 1832.01 81.0341C1830.1 76.9659 1829.14 72.3182 1829.14 67.0909C1829.14 61.7727 1830.12 57.0795 1832.08 53.0114C1834.05 48.9205 1836.8 45.7273 1840.33 43.4318C1843.87 41.1136 1848.01 39.9545 1852.73 39.9545C1856.42 39.9545 1859.73 40.6364 1862.69 42C1865.64 43.3636 1868.06 45.2727 1869.95 47.7273C1871.84 50.1818 1873.01 53.0455 1873.46 56.3182H1865.42C1864.8 53.9318 1863.44 51.8182 1861.33 49.9773C1859.23 48.1136 1856.42 47.1818 1852.87 47.1818C1849.73 47.1818 1846.98 48 1844.62 49.6364C1842.28 51.25 1840.45 53.5341 1839.13 56.4886C1837.84 59.4205 1837.19 62.8636 1837.19 66.8182C1837.19 70.8636 1837.83 74.3864 1839.1 77.3864C1840.39 80.3864 1842.21 82.7159 1844.55 84.375C1846.92 86.0341 1849.69 86.8636 1852.87 86.8636C1854.96 86.8636 1856.86 86.5 1858.56 85.7727C1860.27 85.0455 1861.71 84 1862.89 82.6364C1864.08 81.2727 1864.92 79.6364 1865.42 77.7273H1873.46C1873.01 80.8182 1871.88 83.6023 1870.09 86.0795C1868.31 88.5341 1865.96 90.4886 1863.03 91.9432C1860.12 93.375 1856.73 94.0909 1852.87 94.0909ZM1913.86 82.0909L1932.13 40.6364H1939.77L1917.13 93H1910.59L1888.36 40.6364H1895.86L1913.86 82.0909ZM1893.27 40.6364V93H1885.22V40.6364H1893.27ZM1934.45 93V40.6364H1942.5V93H1934.45Z" fill="#0007B3"/>
<path d="M36.4545 785V715.182H60.0455C65.5227 715.182 70 716.17 73.4773 718.148C76.9773 720.102 79.5682 722.75 81.25 726.091C82.9318 729.432 83.7727 733.159 83.7727 737.273C83.7727 741.386 82.9318 745.125 81.25 748.489C79.5909 751.852 77.0227 754.534 73.5455 756.534C70.0682 758.511 65.6136 759.5 60.1818 759.5H43.2727V752H59.9091C63.6591 752 66.6705 751.352 68.9432 750.057C71.2159 748.761 72.8636 747.011 73.8864 744.807C74.9318 742.58 75.4545 740.068 75.4545 737.273C75.4545 734.477 74.9318 731.977 73.8864 729.773C72.8636 727.568 71.2045 725.841 68.9091 724.591C66.6136 723.318 63.5682 722.682 59.7727 722.682H44.9091V785H36.4545ZM143.21 715.182H151.665V761.409C151.665 766.182 150.54 770.443 148.29 774.193C146.063 777.92 142.915 780.864 138.847 783.023C134.778 785.159 130.006 786.227 124.528 786.227C119.051 786.227 114.278 785.159 110.21 783.023C106.142 780.864 102.983 777.92 100.733 774.193C98.5057 770.443 97.392 766.182 97.392 761.409V715.182H105.847V760.727C105.847 764.136 106.597 767.17 108.097 769.83C109.597 772.466 111.733 774.545 114.506 776.068C117.301 777.568 120.642 778.318 124.528 778.318C128.415 778.318 131.756 777.568 134.551 776.068C137.347 774.545 139.483 772.466 140.96 769.83C142.46 767.17 143.21 764.136 143.21 760.727V715.182ZM168.548 785V715.182H192.139C197.594 715.182 202.071 716.114 205.571 717.977C209.071 719.818 211.662 722.352 213.344 725.58C215.026 728.807 215.866 732.477 215.866 736.591C215.866 740.705 215.026 744.352 213.344 747.534C211.662 750.716 209.082 753.216 205.605 755.034C202.128 756.83 197.685 757.727 192.276 757.727H173.185V750.091H192.003C195.73 750.091 198.73 749.545 201.003 748.455C203.298 747.364 204.957 745.818 205.98 743.818C207.026 741.795 207.548 739.386 207.548 736.591C207.548 733.795 207.026 731.352 205.98 729.261C204.935 727.17 203.264 725.557 200.969 724.42C198.673 723.261 195.639 722.682 191.866 722.682H177.003V785H168.548ZM201.412 753.636L218.594 785H208.776L191.866 753.636H201.412ZM252.318 785.955C247.818 785.955 243.807 785.182 240.284 783.636C236.784 782.091 234 779.943 231.932 777.193C229.886 774.42 228.773 771.205 228.591 767.545H237.182C237.364 769.795 238.136 771.739 239.5 773.375C240.864 774.989 242.648 776.239 244.852 777.125C247.057 778.011 249.5 778.455 252.182 778.455C255.182 778.455 257.841 777.932 260.159 776.886C262.477 775.841 264.295 774.386 265.614 772.523C266.932 770.659 267.591 768.5 267.591 766.045C267.591 763.477 266.955 761.216 265.682 759.261C264.409 757.284 262.545 755.739 260.091 754.625C257.636 753.511 254.636 752.955 251.091 752.955H245.5V745.455H251.091C253.864 745.455 256.295 744.955 258.386 743.955C260.5 742.955 262.148 741.545 263.33 739.727C264.534 737.909 265.136 735.773 265.136 733.318C265.136 730.955 264.614 728.898 263.568 727.148C262.523 725.398 261.045 724.034 259.136 723.057C257.25 722.08 255.023 721.591 252.455 721.591C250.045 721.591 247.773 722.034 245.636 722.92C243.523 723.784 241.795 725.045 240.455 726.705C239.114 728.341 238.386 730.318 238.273 732.636H230.091C230.227 728.977 231.33 725.773 233.398 723.023C235.466 720.25 238.17 718.091 241.511 716.545C244.875 715 248.568 714.227 252.591 714.227C256.909 714.227 260.614 715.102 263.705 716.852C266.795 718.58 269.17 720.864 270.83 723.705C272.489 726.545 273.318 729.614 273.318 732.909C273.318 736.841 272.284 740.193 270.216 742.966C268.17 745.739 265.386 747.659 261.864 748.727V749.273C266.273 750 269.716 751.875 272.193 754.898C274.67 757.898 275.909 761.614 275.909 766.045C275.909 769.841 274.875 773.25 272.807 776.273C270.761 779.273 267.966 781.636 264.42 783.364C260.875 785.091 256.841 785.955 252.318 785.955ZM313.443 785.955C308.943 785.955 304.932 785.182 301.409 783.636C297.909 782.091 295.125 779.943 293.057 777.193C291.011 774.42 289.898 771.205 289.716 767.545H298.307C298.489 769.795 299.261 771.739 300.625 773.375C301.989 774.989 303.773 776.239 305.977 777.125C308.182 778.011 310.625 778.455 313.307 778.455C316.307 778.455 318.966 777.932 321.284 776.886C323.602 775.841 325.42 774.386 326.739 772.523C328.057 770.659 328.716 768.5 328.716 766.045C328.716 763.477 328.08 761.216 326.807 759.261C325.534 757.284 323.67 755.739 321.216 754.625C318.761 753.511 315.761 752.955 312.216 752.955H306.625V745.455H312.216C314.989 745.455 317.42 744.955 319.511 743.955C321.625 742.955 323.273 741.545 324.455 739.727C325.659 737.909 326.261 735.773 326.261 733.318C326.261 730.955 325.739 728.898 324.693 727.148C323.648 725.398 322.17 724.034 320.261 723.057C318.375 722.08 316.148 721.591 313.58 721.591C311.17 721.591 308.898 722.034 306.761 722.92C304.648 723.784 302.92 725.045 301.58 726.705C300.239 728.341 299.511 730.318 299.398 732.636H291.216C291.352 728.977 292.455 725.773 294.523 723.023C296.591 720.25 299.295 718.091 302.636 716.545C306 715 309.693 714.227 313.716 714.227C318.034 714.227 321.739 715.102 324.83 716.852C327.92 718.58 330.295 720.864 331.955 723.705C333.614 726.545 334.443 729.614 334.443 732.909C334.443 736.841 333.409 740.193 331.341 742.966C329.295 745.739 326.511 747.659 322.989 748.727V749.273C327.398 750 330.841 751.875 333.318 754.898C335.795 757.898 337.034 761.614 337.034 766.045C337.034 769.841 336 773.25 333.932 776.273C331.886 779.273 329.091 781.636 325.545 783.364C322 785.091 317.966 785.955 313.443 785.955ZM352.205 785V715.182H360.659V777.5H393.114V785H352.205Z" fill="#0007B3"/>
<path d="M36.4545 673V603.182H60.0455C65.5227 603.182 70 604.17 73.4773 606.148C76.9773 608.102 79.5682 610.75 81.25 614.091C82.9318 617.432 83.7727 621.159 83.7727 625.273C83.7727 629.386 82.9318 633.125 81.25 636.489C79.5909 639.852 77.0227 642.534 73.5455 644.534C70.0682 646.511 65.6136 647.5 60.1818 647.5H43.2727V640H59.9091C63.6591 640 66.6705 639.352 68.9432 638.057C71.2159 636.761 72.8636 635.011 73.8864 632.807C74.9318 630.58 75.4545 628.068 75.4545 625.273C75.4545 622.477 74.9318 619.977 73.8864 617.773C72.8636 615.568 71.2045 613.841 68.9091 612.591C66.6136 611.318 63.5682 610.682 59.7727 610.682H44.9091V673H36.4545ZM97.392 673V603.182H120.983C126.438 603.182 130.915 604.114 134.415 605.977C137.915 607.818 140.506 610.352 142.188 613.58C143.869 616.807 144.71 620.477 144.71 624.591C144.71 628.705 143.869 632.352 142.188 635.534C140.506 638.716 137.926 641.216 134.449 643.034C130.972 644.83 126.528 645.727 121.119 645.727H102.028V638.091H120.847C124.574 638.091 127.574 637.545 129.847 636.455C132.142 635.364 133.801 633.818 134.824 631.818C135.869 629.795 136.392 627.386 136.392 624.591C136.392 621.795 135.869 619.352 134.824 617.261C133.778 615.17 132.108 613.557 129.812 612.42C127.517 611.261 124.483 610.682 120.71 610.682H105.847V673H97.392ZM130.256 641.636L147.438 673H137.619L120.71 641.636H130.256ZM181.162 673.955C176.662 673.955 172.651 673.182 169.128 671.636C165.628 670.091 162.844 667.943 160.776 665.193C158.73 662.42 157.616 659.205 157.435 655.545H166.026C166.207 657.795 166.98 659.739 168.344 661.375C169.707 662.989 171.491 664.239 173.696 665.125C175.901 666.011 178.344 666.455 181.026 666.455C184.026 666.455 186.685 665.932 189.003 664.886C191.321 663.841 193.139 662.386 194.457 660.523C195.776 658.659 196.435 656.5 196.435 654.045C196.435 651.477 195.798 649.216 194.526 647.261C193.253 645.284 191.389 643.739 188.935 642.625C186.48 641.511 183.48 640.955 179.935 640.955H174.344V633.455H179.935C182.707 633.455 185.139 632.955 187.23 631.955C189.344 630.955 190.991 629.545 192.173 627.727C193.378 625.909 193.98 623.773 193.98 621.318C193.98 618.955 193.457 616.898 192.412 615.148C191.366 613.398 189.889 612.034 187.98 611.057C186.094 610.08 183.866 609.591 181.298 609.591C178.889 609.591 176.616 610.034 174.48 610.92C172.366 611.784 170.639 613.045 169.298 614.705C167.957 616.341 167.23 618.318 167.116 620.636H158.935C159.071 616.977 160.173 613.773 162.241 611.023C164.31 608.25 167.014 606.091 170.355 604.545C173.719 603 177.412 602.227 181.435 602.227C185.753 602.227 189.457 603.102 192.548 604.852C195.639 606.58 198.014 608.864 199.673 611.705C201.332 614.545 202.162 617.614 202.162 620.909C202.162 624.841 201.128 628.193 199.06 630.966C197.014 633.739 194.23 635.659 190.707 636.727V637.273C195.116 638 198.56 639.875 201.037 642.898C203.514 645.898 204.753 649.614 204.753 654.045C204.753 657.841 203.719 661.25 201.651 664.273C199.605 667.273 196.81 669.636 193.264 671.364C189.719 673.091 185.685 673.955 181.162 673.955ZM241.469 673.955C236.332 673.955 231.957 672.557 228.344 669.761C224.73 666.943 221.969 662.864 220.06 657.523C218.151 652.159 217.196 645.682 217.196 638.091C217.196 630.545 218.151 624.102 220.06 618.761C221.991 613.398 224.764 609.307 228.378 606.489C232.014 603.648 236.378 602.227 241.469 602.227C246.56 602.227 250.912 603.648 254.526 606.489C258.162 609.307 260.935 613.398 262.844 618.761C264.776 624.102 265.741 630.545 265.741 638.091C265.741 645.682 264.787 652.159 262.878 657.523C260.969 662.864 258.207 666.943 254.594 669.761C250.98 672.557 246.605 673.955 241.469 673.955ZM241.469 666.455C246.56 666.455 250.514 664 253.332 659.091C256.151 654.182 257.56 647.182 257.56 638.091C257.56 632.045 256.912 626.898 255.616 622.648C254.344 618.398 252.503 615.159 250.094 612.932C247.707 610.705 244.832 609.591 241.469 609.591C236.423 609.591 232.48 612.08 229.639 617.057C226.798 622.011 225.378 629.023 225.378 638.091C225.378 644.136 226.014 649.273 227.287 653.5C228.56 657.727 230.389 660.943 232.776 663.148C235.185 665.352 238.082 666.455 241.469 666.455Z" fill="#0007B3"/>
<path d="M77.5 1017L53.5 984.955H44.9091V1017H36.4545V947.182H44.9091V977.455H48.5909L76.5455 947.182H86.6364L58.4091 977.864L87.5909 1017H77.5ZM112.835 1018.23C109.517 1018.23 106.506 1017.6 103.801 1016.35C101.097 1015.08 98.9489 1013.25 97.358 1010.86C95.767 1008.45 94.9716 1005.55 94.9716 1002.14C94.9716 999.136 95.5625 996.705 96.7443 994.841C97.9261 992.955 99.5057 991.477 101.483 990.409C103.46 989.341 105.642 988.545 108.028 988.023C110.438 987.477 112.858 987.045 115.29 986.727C118.472 986.318 121.051 986.011 123.028 985.807C125.028 985.58 126.483 985.205 127.392 984.682C128.324 984.159 128.79 983.25 128.79 981.955V981.682C128.79 978.318 127.869 975.705 126.028 973.841C124.21 971.977 121.449 971.045 117.744 971.045C113.903 971.045 110.892 971.886 108.71 973.568C106.528 975.25 104.994 977.045 104.108 978.955L96.4716 976.227C97.8352 973.045 99.6534 970.568 101.926 968.795C104.222 967 106.722 965.75 109.426 965.045C112.153 964.318 114.835 963.955 117.472 963.955C119.153 963.955 121.085 964.159 123.267 964.568C125.472 964.955 127.597 965.761 129.642 966.989C131.71 968.216 133.426 970.068 134.79 972.545C136.153 975.023 136.835 978.341 136.835 982.5V1017H128.79V1009.91H128.381C127.835 1011.05 126.926 1012.26 125.653 1013.56C124.381 1014.85 122.688 1015.95 120.574 1016.86C118.46 1017.77 115.881 1018.23 112.835 1018.23ZM114.062 1011C117.244 1011 119.926 1010.38 122.108 1009.12C124.313 1007.88 125.972 1006.26 127.085 1004.28C128.222 1002.31 128.79 1000.23 128.79 998.045V990.682C128.449 991.091 127.699 991.466 126.54 991.807C125.403 992.125 124.085 992.409 122.585 992.659C121.108 992.886 119.665 993.091 118.256 993.273C116.869 993.432 115.744 993.568 114.881 993.682C112.79 993.955 110.835 994.398 109.017 995.011C107.222 995.602 105.767 996.5 104.653 997.705C103.563 998.886 103.017 1000.5 103.017 1002.55C103.017 1005.34 104.051 1007.45 106.119 1008.89C108.21 1010.3 110.858 1011 114.062 1011ZM151.52 1036.64V964.636H159.293V972.955H160.247C160.838 972.045 161.656 970.886 162.702 969.477C163.77 968.045 165.293 966.773 167.27 965.659C169.27 964.523 171.974 963.955 175.384 963.955C179.793 963.955 183.679 965.057 187.043 967.261C190.406 969.466 193.031 972.591 194.918 976.636C196.804 980.682 197.747 985.455 197.747 990.955C197.747 996.5 196.804 1001.31 194.918 1005.38C193.031 1009.42 190.418 1012.56 187.077 1014.78C183.736 1016.99 179.884 1018.09 175.52 1018.09C172.156 1018.09 169.463 1017.53 167.44 1016.42C165.418 1015.28 163.861 1014 162.77 1012.57C161.679 1011.11 160.838 1009.91 160.247 1008.95H159.565V1036.64H151.52ZM159.429 990.818C159.429 994.773 160.009 998.261 161.168 1001.28C162.327 1004.28 164.02 1006.64 166.247 1008.34C168.474 1010.02 171.202 1010.86 174.429 1010.86C177.793 1010.86 180.599 1009.98 182.849 1008.2C185.122 1006.41 186.827 1004 187.963 1000.98C189.122 997.932 189.702 994.545 189.702 990.818C189.702 987.136 189.134 983.818 187.997 980.864C186.884 977.886 185.19 975.534 182.918 973.807C180.668 972.057 177.838 971.182 174.429 971.182C171.156 971.182 168.406 972.011 166.179 973.67C163.952 975.307 162.27 977.602 161.134 980.557C159.997 983.489 159.429 986.909 159.429 990.818ZM203.176 972.136V964.636H245.722V972.136H228.54V1017H220.494V972.136H203.176ZM276.011 1018.09C271.284 1018.09 267.136 1016.97 263.568 1014.72C260.023 1012.47 257.25 1009.32 255.25 1005.27C253.273 1001.23 252.284 996.5 252.284 991.091C252.284 985.636 253.273 980.875 255.25 976.807C257.25 972.739 260.023 969.58 263.568 967.33C267.136 965.08 271.284 963.955 276.011 963.955C280.739 963.955 284.875 965.08 288.42 967.33C291.989 969.58 294.761 972.739 296.739 976.807C298.739 980.875 299.739 985.636 299.739 991.091C299.739 996.5 298.739 1001.23 296.739 1005.27C294.761 1009.32 291.989 1012.47 288.42 1014.72C284.875 1016.97 280.739 1018.09 276.011 1018.09ZM276.011 1010.86C279.602 1010.86 282.557 1009.94 284.875 1008.1C287.193 1006.26 288.909 1003.84 290.023 1000.84C291.136 997.841 291.693 994.591 291.693 991.091C291.693 987.591 291.136 984.33 290.023 981.307C288.909 978.284 287.193 975.841 284.875 973.977C282.557 972.114 279.602 971.182 276.011 971.182C272.42 971.182 269.466 972.114 267.148 973.977C264.83 975.841 263.114 978.284 262 981.307C260.886 984.33 260.33 987.591 260.33 991.091C260.33 994.591 260.886 997.841 262 1000.84C263.114 1003.84 264.83 1006.26 267.148 1008.1C269.466 1009.94 272.42 1010.86 276.011 1010.86ZM347.065 987.136V994.636H318.156V987.136H347.065ZM320.065 964.636V1017H312.02V964.636H320.065ZM353.202 964.636V1017H345.156V964.636H353.202Z" fill="#0007B3"/>
<path d="M92.6364 853H84.1818C83.6818 850.568 82.8068 848.432 81.5568 846.591C80.3295 844.75 78.8295 843.205 77.0568 841.955C75.3068 840.682 73.3636 839.727 71.2273 839.091C69.0909 838.455 66.8636 838.136 64.5455 838.136C60.3182 838.136 56.4886 839.205 53.0568 841.341C49.6477 843.477 46.9318 846.625 44.9091 850.784C42.9091 854.943 41.9091 860.045 41.9091 866.091C41.9091 872.136 42.9091 877.239 44.9091 881.398C46.9318 885.557 49.6477 888.705 53.0568 890.841C56.4886 892.977 60.3182 894.045 64.5455 894.045C66.8636 894.045 69.0909 893.727 71.2273 893.091C73.3636 892.455 75.3068 891.511 77.0568 890.261C78.8295 888.989 80.3295 887.432 81.5568 885.591C82.8068 883.727 83.6818 881.591 84.1818 879.182H92.6364C92 882.75 90.8409 885.943 89.1591 888.761C87.4773 891.58 85.3864 893.977 82.8864 895.955C80.3864 897.909 77.5795 899.398 74.4659 900.42C71.375 901.443 68.0682 901.955 64.5455 901.955C58.5909 901.955 53.2955 900.5 48.6591 897.591C44.0227 894.682 40.375 890.545 37.7159 885.182C35.0568 879.818 33.7273 873.455 33.7273 866.091C33.7273 858.727 35.0568 852.364 37.7159 847C40.375 841.636 44.0227 837.5 48.6591 834.591C53.2955 831.682 58.5909 830.227 64.5455 830.227C68.0682 830.227 71.375 830.739 74.4659 831.761C77.5795 832.784 80.3864 834.284 82.8864 836.261C85.3864 838.216 87.4773 840.602 89.1591 843.42C90.8409 846.216 92 849.409 92.6364 853ZM106.298 831.182H116.389L140.116 889.136H140.935L164.662 831.182H174.753V901H166.844V847.955H166.162L144.344 901H136.707L114.889 847.955H114.207V901H106.298V831.182ZM191.705 901V831.182H216.114C220.977 831.182 224.989 832.023 228.148 833.705C231.307 835.364 233.659 837.602 235.205 840.42C236.75 843.216 237.523 846.318 237.523 849.727C237.523 852.727 236.989 855.205 235.92 857.159C234.875 859.114 233.489 860.659 231.761 861.795C230.057 862.932 228.205 863.773 226.205 864.318V865C228.341 865.136 230.489 865.886 232.648 867.25C234.807 868.614 236.614 870.568 238.068 873.114C239.523 875.659 240.25 878.773 240.25 882.455C240.25 885.955 239.455 889.102 237.864 891.898C236.273 894.693 233.761 896.909 230.33 898.545C226.898 900.182 222.432 901 216.932 901H191.705ZM200.159 893.5H216.932C222.455 893.5 226.375 892.432 228.693 890.295C231.034 888.136 232.205 885.523 232.205 882.455C232.205 880.091 231.602 877.909 230.398 875.909C229.193 873.886 227.477 872.273 225.25 871.068C223.023 869.841 220.386 869.227 217.341 869.227H200.159V893.5ZM200.159 861.864H215.841C218.386 861.864 220.682 861.364 222.727 860.364C224.795 859.364 226.432 857.955 227.636 856.136C228.864 854.318 229.477 852.182 229.477 849.727C229.477 846.659 228.409 844.057 226.273 841.92C224.136 839.761 220.75 838.682 216.114 838.682H200.159V861.864Z" fill="#0007B3"/>
<path d="M49.1364 557L30.0455 487.182H38.6364L53.2273 544.045H53.9091L68.7727 487.182H78.3182L93.1818 544.045H93.8636L108.455 487.182H117.045L97.9545 557H89.2273L73.8182 501.364H73.2727L57.8636 557H49.1364ZM143.568 558.091C138.523 558.091 134.17 556.977 130.511 554.75C126.875 552.5 124.068 549.364 122.091 545.341C120.136 541.295 119.159 536.591 119.159 531.227C119.159 525.864 120.136 521.136 122.091 517.045C124.068 512.932 126.818 509.727 130.341 507.432C133.886 505.114 138.023 503.955 142.75 503.955C145.477 503.955 148.17 504.409 150.83 505.318C153.489 506.227 155.909 507.705 158.091 509.75C160.273 511.773 162.011 514.455 163.307 517.795C164.602 521.136 165.25 525.25 165.25 530.136V533.545H124.886V526.591H157.068C157.068 523.636 156.477 521 155.295 518.682C154.136 516.364 152.477 514.534 150.318 513.193C148.182 511.852 145.659 511.182 142.75 511.182C139.545 511.182 136.773 511.977 134.432 513.568C132.114 515.136 130.33 517.182 129.08 519.705C127.83 522.227 127.205 524.932 127.205 527.818V532.455C127.205 536.409 127.886 539.761 129.25 542.511C130.636 545.239 132.557 547.318 135.011 548.75C137.466 550.159 140.318 550.864 143.568 550.864C145.682 550.864 147.591 550.568 149.295 549.977C151.023 549.364 152.511 548.455 153.761 547.25C155.011 546.023 155.977 544.5 156.659 542.682L164.432 544.864C163.614 547.5 162.239 549.818 160.307 551.818C158.375 553.795 155.989 555.341 153.148 556.455C150.307 557.545 147.114 558.091 143.568 558.091ZM177.489 557V504.636H185.534V557H177.489ZM181.58 495.909C180.011 495.909 178.659 495.375 177.523 494.307C176.409 493.239 175.852 491.955 175.852 490.455C175.852 488.955 176.409 487.67 177.523 486.602C178.659 485.534 180.011 485 181.58 485C183.148 485 184.489 485.534 185.602 486.602C186.739 487.67 187.307 488.955 187.307 490.455C187.307 491.955 186.739 493.239 185.602 494.307C184.489 495.375 183.148 495.909 181.58 495.909ZM208.315 525.5V557H200.27V504.636H208.043V512.818H208.724C209.952 510.159 211.815 508.023 214.315 506.409C216.815 504.773 220.043 503.955 223.997 503.955C227.543 503.955 230.645 504.682 233.304 506.136C235.963 507.568 238.031 509.75 239.509 512.682C240.986 515.591 241.724 519.273 241.724 523.727V557H233.679V524.273C233.679 520.159 232.611 516.955 230.474 514.659C228.338 512.341 225.406 511.182 221.679 511.182C219.111 511.182 216.815 511.739 214.793 512.852C212.793 513.966 211.213 515.591 210.054 517.727C208.895 519.864 208.315 522.455 208.315 525.5ZM256.426 557V504.636H264.472V557H256.426ZM260.517 495.909C258.949 495.909 257.597 495.375 256.46 494.307C255.347 493.239 254.79 491.955 254.79 490.455C254.79 488.955 255.347 487.67 256.46 486.602C257.597 485.534 258.949 485 260.517 485C262.085 485 263.426 485.534 264.54 486.602C265.676 487.67 266.244 488.955 266.244 490.455C266.244 491.955 265.676 493.239 264.54 494.307C263.426 495.375 262.085 495.909 260.517 495.909ZM300.344 577.727C296.457 577.727 293.116 577.227 290.321 576.227C287.526 575.25 285.196 573.955 283.332 572.341C281.491 570.75 280.026 569.045 278.935 567.227L285.344 562.727C286.071 563.682 286.991 564.773 288.105 566C289.219 567.25 290.741 568.33 292.673 569.239C294.628 570.17 297.185 570.636 300.344 570.636C304.571 570.636 308.06 569.614 310.81 567.568C313.56 565.523 314.935 562.318 314.935 557.955V547.318H314.253C313.662 548.273 312.821 549.455 311.73 550.864C310.662 552.25 309.116 553.489 307.094 554.58C305.094 555.648 302.389 556.182 298.98 556.182C294.753 556.182 290.957 555.182 287.594 553.182C284.253 551.182 281.605 548.273 279.651 544.455C277.719 540.636 276.753 536 276.753 530.545C276.753 525.182 277.696 520.511 279.582 516.534C281.469 512.534 284.094 509.443 287.457 507.261C290.821 505.057 294.707 503.955 299.116 503.955C302.526 503.955 305.23 504.523 307.23 505.659C309.253 506.773 310.798 508.045 311.866 509.477C312.957 510.886 313.798 512.045 314.389 512.955H315.207V504.636H322.98V558.5C322.98 563 321.957 566.659 319.912 569.477C317.889 572.318 315.162 574.398 311.73 575.716C308.321 577.057 304.526 577.727 300.344 577.727ZM300.071 548.955C303.298 548.955 306.026 548.216 308.253 546.739C310.48 545.261 312.173 543.136 313.332 540.364C314.491 537.591 315.071 534.273 315.071 530.409C315.071 526.636 314.503 523.307 313.366 520.42C312.23 517.534 310.548 515.273 308.321 513.636C306.094 512 303.344 511.182 300.071 511.182C296.662 511.182 293.821 512.045 291.548 513.773C289.298 515.5 287.605 517.818 286.469 520.727C285.355 523.636 284.798 526.864 284.798 530.409C284.798 534.045 285.366 537.261 286.503 540.057C287.662 542.83 289.366 545.011 291.616 546.602C293.889 548.17 296.707 548.955 300.071 548.955Z" fill="#0007B3"/>
<path d="M74.6364 388.636C74.2273 385.182 72.5682 382.5 69.6591 380.591C66.75 378.682 63.1818 377.727 58.9545 377.727C55.8636 377.727 53.1591 378.227 50.8409 379.227C48.5455 380.227 46.75 381.602 45.4545 383.352C44.1818 385.102 43.5455 387.091 43.5455 389.318C43.5455 391.182 43.9886 392.784 44.875 394.125C45.7841 395.443 46.9432 396.545 48.3523 397.432C49.7614 398.295 51.2386 399.011 52.7841 399.58C54.3295 400.125 55.75 400.568 57.0455 400.909L64.1364 402.818C65.9545 403.295 67.9773 403.955 70.2045 404.795C72.4545 405.636 74.6023 406.784 76.6477 408.239C78.7159 409.67 80.4205 411.511 81.7614 413.761C83.1023 416.011 83.7727 418.773 83.7727 422.045C83.7727 425.818 82.7841 429.227 80.8068 432.273C78.8523 435.318 75.9886 437.739 72.2159 439.534C68.4659 441.33 63.9091 442.227 58.5455 442.227C53.5455 442.227 49.2159 441.42 45.5568 439.807C41.9205 438.193 39.0568 435.943 36.9659 433.057C34.8977 430.17 33.7273 426.818 33.4545 423H42.1818C42.4091 425.636 43.2955 427.818 44.8409 429.545C46.4091 431.25 48.3864 432.523 50.7727 433.364C53.1818 434.182 55.7727 434.591 58.5455 434.591C61.7727 434.591 64.6705 434.068 67.2386 433.023C69.8068 431.955 71.8409 430.477 73.3409 428.591C74.8409 426.682 75.5909 424.455 75.5909 421.909C75.5909 419.591 74.9432 417.705 73.6477 416.25C72.3523 414.795 70.6477 413.614 68.5341 412.705C66.4205 411.795 64.1364 411 61.6818 410.318L53.0909 407.864C47.6364 406.295 43.3182 404.057 40.1364 401.148C36.9545 398.239 35.3636 394.432 35.3636 389.727C35.3636 385.818 36.4205 382.409 38.5341 379.5C40.6705 376.568 43.5341 374.295 47.125 372.682C50.7386 371.045 54.7727 370.227 59.2273 370.227C63.7273 370.227 67.7273 371.034 71.2273 372.648C74.7273 374.239 77.5 376.42 79.5455 379.193C81.6136 381.966 82.7045 385.114 82.8182 388.636H74.6364ZM153.855 393H145.401C144.901 390.568 144.026 388.432 142.776 386.591C141.548 384.75 140.048 383.205 138.276 381.955C136.526 380.682 134.582 379.727 132.446 379.091C130.31 378.455 128.082 378.136 125.764 378.136C121.537 378.136 117.707 379.205 114.276 381.341C110.866 383.477 108.151 386.625 106.128 390.784C104.128 394.943 103.128 400.045 103.128 406.091C103.128 412.136 104.128 417.239 106.128 421.398C108.151 425.557 110.866 428.705 114.276 430.841C117.707 432.977 121.537 434.045 125.764 434.045C128.082 434.045 130.31 433.727 132.446 433.091C134.582 432.455 136.526 431.511 138.276 430.261C140.048 428.989 141.548 427.432 142.776 425.591C144.026 423.727 144.901 421.591 145.401 419.182H153.855C153.219 422.75 152.06 425.943 150.378 428.761C148.696 431.58 146.605 433.977 144.105 435.955C141.605 437.909 138.798 439.398 135.685 440.42C132.594 441.443 129.287 441.955 125.764 441.955C119.81 441.955 114.514 440.5 109.878 437.591C105.241 434.682 101.594 430.545 98.9347 425.182C96.2756 419.818 94.946 413.455 94.946 406.091C94.946 398.727 96.2756 392.364 98.9347 387C101.594 381.636 105.241 377.5 109.878 374.591C114.514 371.682 119.81 370.227 125.764 370.227C129.287 370.227 132.594 370.739 135.685 371.761C138.798 372.784 141.605 374.284 144.105 376.261C146.605 378.216 148.696 380.602 150.378 383.42C152.06 386.216 153.219 389.409 153.855 393ZM167.517 371.182H177.608L201.335 429.136H202.153L225.881 371.182H235.972V441H228.062V387.955H227.381L205.562 441H197.926L176.108 387.955H175.426V441H167.517V371.182Z" fill="#0007B3"/>
<path d="M36.4545 325V255.182H60.8636C65.7273 255.182 69.7386 256.023 72.8977 257.705C76.0568 259.364 78.4091 261.602 79.9545 264.42C81.5 267.216 82.2727 270.318 82.2727 273.727C82.2727 276.727 81.7386 279.205 80.6705 281.159C79.625 283.114 78.2386 284.659 76.5114 285.795C74.8068 286.932 72.9545 287.773 70.9545 288.318V289C73.0909 289.136 75.2386 289.886 77.3977 291.25C79.5568 292.614 81.3636 294.568 82.8182 297.114C84.2727 299.659 85 302.773 85 306.455C85 309.955 84.2045 313.102 82.6136 315.898C81.0227 318.693 78.5114 320.909 75.0795 322.545C71.6477 324.182 67.1818 325 61.6818 325H36.4545ZM44.9091 317.5H61.6818C67.2045 317.5 71.125 316.432 73.4432 314.295C75.7841 312.136 76.9545 309.523 76.9545 306.455C76.9545 304.091 76.3523 301.909 75.1477 299.909C73.9432 297.886 72.2273 296.273 70 295.068C67.7727 293.841 65.1364 293.227 62.0909 293.227H44.9091V317.5ZM44.9091 285.864H60.5909C63.1364 285.864 65.4318 285.364 67.4773 284.364C69.5455 283.364 71.1818 281.955 72.3864 280.136C73.6136 278.318 74.2273 276.182 74.2273 273.727C74.2273 270.659 73.1591 268.057 71.0227 265.92C68.8864 263.761 65.5 262.682 60.8636 262.682H44.9091V285.864ZM113.21 326.227C109.892 326.227 106.881 325.602 104.176 324.352C101.472 323.08 99.3239 321.25 97.733 318.864C96.142 316.455 95.3466 313.545 95.3466 310.136C95.3466 307.136 95.9375 304.705 97.1193 302.841C98.3011 300.955 99.8807 299.477 101.858 298.409C103.835 297.341 106.017 296.545 108.403 296.023C110.813 295.477 113.233 295.045 115.665 294.727C118.847 294.318 121.426 294.011 123.403 293.807C125.403 293.58 126.858 293.205 127.767 292.682C128.699 292.159 129.165 291.25 129.165 289.955V289.682C129.165 286.318 128.244 283.705 126.403 281.841C124.585 279.977 121.824 279.045 118.119 279.045C114.278 279.045 111.267 279.886 109.085 281.568C106.903 283.25 105.369 285.045 104.483 286.955L96.8466 284.227C98.2102 281.045 100.028 278.568 102.301 276.795C104.597 275 107.097 273.75 109.801 273.045C112.528 272.318 115.21 271.955 117.847 271.955C119.528 271.955 121.46 272.159 123.642 272.568C125.847 272.955 127.972 273.761 130.017 274.989C132.085 276.216 133.801 278.068 135.165 280.545C136.528 283.023 137.21 286.341 137.21 290.5V325H129.165V317.909H128.756C128.21 319.045 127.301 320.261 126.028 321.557C124.756 322.852 123.063 323.955 120.949 324.864C118.835 325.773 116.256 326.227 113.21 326.227ZM114.438 319C117.619 319 120.301 318.375 122.483 317.125C124.688 315.875 126.347 314.261 127.46 312.284C128.597 310.307 129.165 308.227 129.165 306.045V298.682C128.824 299.091 128.074 299.466 126.915 299.807C125.778 300.125 124.46 300.409 122.96 300.659C121.483 300.886 120.04 301.091 118.631 301.273C117.244 301.432 116.119 301.568 115.256 301.682C113.165 301.955 111.21 302.398 109.392 303.011C107.597 303.602 106.142 304.5 105.028 305.705C103.938 306.886 103.392 308.5 103.392 310.545C103.392 313.341 104.426 315.455 106.494 316.886C108.585 318.295 111.233 319 114.438 319ZM159.94 255.182V325H151.895V255.182H159.94ZM195.949 326.091C191.04 326.091 186.813 324.932 183.267 322.614C179.722 320.295 176.994 317.102 175.085 313.034C173.176 308.966 172.222 304.318 172.222 299.091C172.222 293.773 173.199 289.08 175.153 285.011C177.131 280.92 179.881 277.727 183.403 275.432C186.949 273.114 191.085 271.955 195.812 271.955C199.494 271.955 202.812 272.636 205.767 274C208.722 275.364 211.142 277.273 213.028 279.727C214.915 282.182 216.085 285.045 216.54 288.318H208.494C207.881 285.932 206.517 283.818 204.403 281.977C202.313 280.114 199.494 279.182 195.949 279.182C192.813 279.182 190.063 280 187.699 281.636C185.358 283.25 183.528 285.534 182.21 288.489C180.915 291.42 180.267 294.864 180.267 298.818C180.267 302.864 180.903 306.386 182.176 309.386C183.472 312.386 185.29 314.716 187.631 316.375C189.994 318.034 192.767 318.864 195.949 318.864C198.04 318.864 199.938 318.5 201.642 317.773C203.347 317.045 204.79 316 205.972 314.636C207.153 313.273 207.994 311.636 208.494 309.727H216.54C216.085 312.818 214.96 315.602 213.165 318.08C211.392 320.534 209.04 322.489 206.108 323.943C203.199 325.375 199.813 326.091 195.949 326.091ZM249.574 326.091C244.847 326.091 240.699 324.966 237.131 322.716C233.585 320.466 230.812 317.318 228.812 313.273C226.835 309.227 225.847 304.5 225.847 299.091C225.847 293.636 226.835 288.875 228.812 284.807C230.812 280.739 233.585 277.58 237.131 275.33C240.699 273.08 244.847 271.955 249.574 271.955C254.301 271.955 258.438 273.08 261.983 275.33C265.551 277.58 268.324 280.739 270.301 284.807C272.301 288.875 273.301 293.636 273.301 299.091C273.301 304.5 272.301 309.227 270.301 313.273C268.324 317.318 265.551 320.466 261.983 322.716C258.438 324.966 254.301 326.091 249.574 326.091ZM249.574 318.864C253.165 318.864 256.119 317.943 258.438 316.102C260.756 314.261 262.472 311.841 263.585 308.841C264.699 305.841 265.256 302.591 265.256 299.091C265.256 295.591 264.699 292.33 263.585 289.307C262.472 286.284 260.756 283.841 258.438 281.977C256.119 280.114 253.165 279.182 249.574 279.182C245.983 279.182 243.028 280.114 240.71 281.977C238.392 283.841 236.676 286.284 235.562 289.307C234.449 292.33 233.892 295.591 233.892 299.091C233.892 302.591 234.449 305.841 235.562 308.841C236.676 311.841 238.392 314.261 240.71 316.102C243.028 317.943 245.983 318.864 249.574 318.864Z" fill="#0007B3"/>
<rect x="473" y="470" width="228" height="104" fill="white" stroke="#4A03DF" stroke-width="12"/>
<rect x="2247" y="355" width="108" height="104" fill="white" stroke="#FFF500" stroke-width="12"/>
<rect x="2372" y="470" width="48" height="104" fill="white" stroke="#FFCA10" stroke-width="12"/>
<rect x="2932" y="472" width="48" height="104" fill="white" stroke="#FF9110" stroke-width="12"/>
<rect x="3112" y="472" width="48" height="104" fill="white" stroke="#FF1010" stroke-width="12"/>
<rect x="3214" y="588" width="108" height="104" fill="white" stroke="#FF1010" stroke-width="12"/>
<rect x="2732" y="588" width="228" height="104" fill="white" stroke="#FFCA10" stroke-width="12"/>
<rect x="3029" y="588" width="108" height="104" fill="white" stroke="#FF9110" stroke-width="12"/>
<rect x="2402" y="586" width="228" height="104" fill="white" stroke="#FFF500" stroke-width="12"/>
<rect x="732" y="360" width="48" height="104" fill="white" stroke="#0075FF" stroke-width="12"/>
<rect x="2092" y="583" width="228" height="104" fill="white" stroke="#14FF00" stroke-width="12"/>
<rect x="1281" y="363" width="108" height="104" fill="white" stroke="#00FFE0" stroke-width="12"/>
<rect x="1409" y="699" width="171" height="104" fill="white" stroke="#00FFE0" stroke-width="12"/>
<rect x="1702" y="696" width="162" height="104" fill="white" stroke="#00FFE0" stroke-width="12"/>
<rect x="2097" y="472" width="108" height="104" fill="white" stroke="#14FF00" stroke-width="12"/>
<rect x="1041" y="698" width="228" height="104" fill="white" stroke="#0075FF" stroke-width="12"/>
<rect x="699" y="700" width="108" height="104" fill="white" stroke="#FF00E5" stroke-width="12"/>
<rect x="861" y="586" width="168" height="104" fill="white" stroke="#4A03DF" stroke-width="12"/>
<rect x="695" y="236" width="150" height="116" fill="#FF00E5"/>
<rect x="1305" y="580" width="98" height="116" fill="#4A03DF"/>
<rect x="1586" y="580" width="110" height="116" fill="#4A03DF"/>
<rect x="1696" y="811" width="84" height="116" fill="#4A03DF"/>
<rect x="1365" y="120" width="30" height="116" fill="#FFF500"/>
<rect x="527" y="118" width="48" height="116" fill="#0075FF"/>
<rect x="1498" y="236" width="198" height="116" fill="#00FFE0"/>
<rect x="2326" y="577" width="66" height="116" fill="#14FF00"/>
<rect x="1330" y="115" width="30" height="116" fill="#14FF00"/>
<rect x="2086" y="231" width="198" height="116" fill="#14FF00"/>
<rect x="1345" y="236" width="150" height="116" fill="#0075FF"/>
<rect x="786" y="352" width="48" height="116" fill="#0075FF"/>
<rect x="1395" y="357" width="216" height="116" fill="#00FFE0"/>
<rect x="1874" y="690" width="144" height="116" fill="#00FFE0"/>
<rect x="2338" y="806" width="60" height="116" fill="#00FFE0"/>
<rect x="2397" y="922" width="138" height="116" fill="#00FFE0"/>
<rect x="2652" y="924" width="193" height="116" fill="#00FFE0"/>
<rect x="2211" y="464" width="150" height="116" fill="#14FF00"/>
<rect x="1275" y="694" width="30" height="116" fill="#0075FF"/>
<path d="M2284 231H2535V347H2284V231Z" fill="#FFF500"/>
<path d="M2926 120H2950V236H2926V120Z" fill="#FFCA10"/>
<path d="M2956 118H2980V234H2956V118Z" fill="#FF9110"/>
<path d="M2985 118H3009V234H2985V118Z" fill="#FF1010"/>
<path d="M3013 118H3037V234H3013V118Z" fill="#850101"/>
<rect x="2361" y="348" width="198" height="116" fill="#FFF500"/>
<rect x="2966" y="582" width="54" height="116" fill="#FFCA10"/>
<rect x="3151" y="580" width="54" height="116" fill="#FF9110"/>
<rect x="2426" y="463" width="109" height="116" fill="#FFCA10"/>
<rect x="2566" y="463" width="11" height="116" fill="#FFCA10"/>
<rect x="3163" y="466" width="78" height="116" fill="#FF1010"/>
<rect x="3247" y="472" width="48" height="104" fill="white" stroke="#850101" stroke-width="12"/>
<rect x="3298" y="466" width="78" height="116" fill="#850101"/>
<rect x="3327" y="582" width="54" height="116" fill="#FF1010"/>
<rect x="3387" y="588" width="108" height="104" fill="white" stroke="#850101" stroke-width="12"/>
<rect x="3502" y="582" width="54" height="116" fill="#850101"/>
<rect x="2986" y="466" width="120" height="116" fill="#FF9110"/>
<rect x="2636" y="582" width="84" height="116" fill="#FFF500"/>
<rect x="407" y="118" width="120" height="116" fill="#4A03DF"/>
<rect x="707" y="464" width="328" height="116" fill="#4A03DF"/>
<rect x="1245" y="464" width="383" height="116" fill="#4A03DF"/>
<rect x="1242" y="236" width="108" height="116" fill="#4A03DF"/>
<rect x="513" y="693" width="180" height="116" fill="#91019D"/>
<rect x="407" y="464" width="60" height="116" fill="#91019D"/>
<rect x="407" y="236" width="288" height="116" fill="#91019D"/>
<rect x="813" y="694" width="42" height="116" fill="#FF00E5"/>
<rect x="1245" y="117" width="84" height="116" fill="#00FFE0"/>
<rect x="28" y="1067" width="100" height="100" fill="#91019D"/>
<path d="M188.682 1082.18V1152H180.227V1089.68H145.045V1152H136.591V1082.18H188.682ZM225.045 1113.34V1120.84H194.499V1113.34H225.045ZM252.238 1152.95C247.101 1152.95 242.726 1151.56 239.113 1148.76C235.499 1145.94 232.738 1141.86 230.828 1136.52C228.919 1131.16 227.965 1124.68 227.965 1117.09C227.965 1109.55 228.919 1103.1 230.828 1097.76C232.76 1092.4 235.533 1088.31 239.147 1085.49C242.783 1082.65 247.147 1081.23 252.238 1081.23C257.328 1081.23 261.681 1082.65 265.294 1085.49C268.931 1088.31 271.703 1092.4 273.613 1097.76C275.544 1103.1 276.51 1109.55 276.51 1117.09C276.51 1124.68 275.556 1131.16 273.647 1136.52C271.738 1141.86 268.976 1145.94 265.363 1148.76C261.749 1151.56 257.374 1152.95 252.238 1152.95ZM252.238 1145.45C257.328 1145.45 261.283 1143 264.101 1138.09C266.919 1133.18 268.328 1126.18 268.328 1117.09C268.328 1111.05 267.681 1105.9 266.385 1101.65C265.113 1097.4 263.272 1094.16 260.863 1091.93C258.476 1089.7 255.601 1088.59 252.238 1088.59C247.192 1088.59 243.249 1091.08 240.408 1096.06C237.567 1101.01 236.147 1108.02 236.147 1117.09C236.147 1123.14 236.783 1128.27 238.056 1132.5C239.328 1136.73 241.158 1139.94 243.544 1142.15C245.953 1144.35 248.851 1145.45 252.238 1145.45ZM304.41 1082.18V1152H295.956V1091.05H295.547L278.501 1102.36V1093.77L295.956 1082.18H304.41ZM337.117 1081.23C339.981 1081.25 342.844 1081.8 345.708 1082.86C348.572 1083.93 351.185 1085.7 353.549 1088.18C355.913 1090.64 357.81 1093.99 359.242 1098.24C360.674 1102.49 361.39 1107.82 361.39 1114.23C361.39 1120.43 360.799 1125.94 359.617 1130.76C358.458 1135.56 356.776 1139.6 354.572 1142.9C352.39 1146.19 349.731 1148.69 346.594 1150.4C343.481 1152.1 339.958 1152.95 336.026 1152.95C332.117 1152.95 328.628 1152.18 325.56 1150.64C322.515 1149.07 320.015 1146.9 318.06 1144.12C316.128 1141.33 314.89 1138.09 314.344 1134.41H322.663C323.413 1137.61 324.901 1140.26 327.128 1142.35C329.378 1144.42 332.344 1145.45 336.026 1145.45C341.413 1145.45 345.663 1143.1 348.776 1138.4C351.913 1133.69 353.481 1127.05 353.481 1118.45H352.935C351.663 1120.36 350.151 1122.01 348.401 1123.4C346.651 1124.78 344.708 1125.85 342.572 1126.6C340.435 1127.35 338.163 1127.73 335.753 1127.73C331.753 1127.73 328.083 1126.74 324.742 1124.76C321.424 1122.76 318.765 1120.02 316.765 1116.55C314.788 1113.05 313.799 1109.05 313.799 1104.55C313.799 1100.27 314.753 1096.36 316.663 1092.82C318.594 1089.25 321.299 1086.41 324.776 1084.3C328.276 1082.18 332.39 1081.16 337.117 1081.23ZM337.117 1088.73C334.253 1088.73 331.674 1089.44 329.378 1090.88C327.106 1092.28 325.299 1094.19 323.958 1096.6C322.64 1098.99 321.981 1101.64 321.981 1104.55C321.981 1107.45 322.617 1110.1 323.89 1112.49C325.185 1114.85 326.947 1116.74 329.174 1118.15C331.424 1119.53 333.981 1120.23 336.844 1120.23C339.003 1120.23 341.015 1119.81 342.878 1118.97C344.742 1118.1 346.367 1116.93 347.753 1115.45C349.163 1113.95 350.265 1112.26 351.06 1110.38C351.856 1108.47 352.253 1106.48 352.253 1104.41C352.253 1101.68 351.594 1099.12 350.276 1096.74C348.981 1094.35 347.185 1092.42 344.89 1090.94C342.617 1089.47 340.026 1088.73 337.117 1088.73Z" fill="#0007B3"/>
<rect x="396.098" y="1067" width="100" height="100" fill="#FF00E5"/>
<path d="M504.886 1152V1082.18H513.341V1113.27H550.568V1082.18H559.023V1152H550.568V1120.77H513.341V1152H504.886ZM560.349 1168.91V1144.5H564.849C566.394 1143.09 567.849 1141.1 569.213 1138.53C570.599 1135.94 571.769 1132.49 572.724 1128.17C573.701 1123.83 574.349 1118.32 574.667 1111.64L576.167 1082.18H617.622V1144.5H625.667V1168.77H617.622V1152H568.394V1168.91H560.349ZM574.94 1144.5H609.576V1089.68H583.803L582.713 1111.64C582.44 1116.73 581.963 1121.34 581.281 1125.48C580.599 1129.59 579.724 1133.24 578.656 1136.42C577.588 1139.58 576.349 1142.27 574.94 1144.5ZM657.752 1113.34V1120.84H627.206V1113.34H657.752ZM684.944 1152.95C679.808 1152.95 675.433 1151.56 671.819 1148.76C668.206 1145.94 665.444 1141.86 663.535 1136.52C661.626 1131.16 660.672 1124.68 660.672 1117.09C660.672 1109.55 661.626 1103.1 663.535 1097.76C665.467 1092.4 668.24 1088.31 671.853 1085.49C675.49 1082.65 679.853 1081.23 684.944 1081.23C690.035 1081.23 694.388 1082.65 698.001 1085.49C701.638 1088.31 704.41 1092.4 706.319 1097.76C708.251 1103.1 709.217 1109.55 709.217 1117.09C709.217 1124.68 708.263 1131.16 706.353 1136.52C704.444 1141.86 701.683 1145.94 698.069 1148.76C694.456 1151.56 690.081 1152.95 684.944 1152.95ZM684.944 1145.45C690.035 1145.45 693.99 1143 696.808 1138.09C699.626 1133.18 701.035 1126.18 701.035 1117.09C701.035 1111.05 700.388 1105.9 699.092 1101.65C697.819 1097.4 695.978 1094.16 693.569 1091.93C691.183 1089.7 688.308 1088.59 684.944 1088.59C679.899 1088.59 675.956 1091.08 673.115 1096.06C670.274 1101.01 668.853 1108.02 668.853 1117.09C668.853 1123.14 669.49 1128.27 670.763 1132.5C672.035 1136.73 673.865 1139.94 676.251 1142.15C678.66 1144.35 681.558 1145.45 684.944 1145.45ZM735.344 1152.95C730.208 1152.95 725.833 1151.56 722.219 1148.76C718.606 1145.94 715.844 1141.86 713.935 1136.52C712.026 1131.16 711.072 1124.68 711.072 1117.09C711.072 1109.55 712.026 1103.1 713.935 1097.76C715.867 1092.4 718.64 1088.31 722.253 1085.49C725.89 1082.65 730.253 1081.23 735.344 1081.23C740.435 1081.23 744.788 1082.65 748.401 1085.49C752.038 1088.31 754.81 1092.4 756.719 1097.76C758.651 1103.1 759.617 1109.55 759.617 1117.09C759.617 1124.68 758.663 1131.16 756.753 1136.52C754.844 1141.86 752.083 1145.94 748.469 1148.76C744.856 1151.56 740.481 1152.95 735.344 1152.95ZM735.344 1145.45C740.435 1145.45 744.39 1143 747.208 1138.09C750.026 1133.18 751.435 1126.18 751.435 1117.09C751.435 1111.05 750.788 1105.9 749.492 1101.65C748.219 1097.4 746.378 1094.16 743.969 1091.93C741.583 1089.7 738.708 1088.59 735.344 1088.59C730.299 1088.59 726.356 1091.08 723.515 1096.06C720.674 1101.01 719.253 1108.02 719.253 1117.09C719.253 1123.14 719.89 1128.27 721.163 1132.5C722.435 1136.73 724.265 1139.94 726.651 1142.15C729.06 1144.35 731.958 1145.45 735.344 1145.45ZM786.153 1152.95C783.29 1152.91 780.426 1152.36 777.563 1151.32C774.699 1150.27 772.085 1148.51 769.722 1146.03C767.358 1143.53 765.46 1140.16 764.028 1135.91C762.597 1131.64 761.881 1126.27 761.881 1119.82C761.881 1113.64 762.46 1108.16 763.619 1103.39C764.778 1098.59 766.46 1094.56 768.665 1091.28C770.869 1087.99 773.528 1085.49 776.642 1083.78C779.778 1082.08 783.313 1081.23 787.244 1081.23C791.153 1081.23 794.631 1082.01 797.676 1083.58C800.744 1085.12 803.244 1087.28 805.176 1090.06C807.108 1092.83 808.358 1096.02 808.926 1099.64H800.608C799.835 1096.5 798.335 1093.9 796.108 1091.83C793.881 1089.76 790.926 1088.73 787.244 1088.73C781.835 1088.73 777.574 1091.08 774.46 1095.78C771.369 1100.49 769.813 1107.09 769.79 1115.59H770.335C771.608 1113.66 773.119 1112.01 774.869 1110.65C776.642 1109.26 778.597 1108.19 780.733 1107.44C782.869 1106.69 785.131 1106.32 787.517 1106.32C791.517 1106.32 795.176 1107.32 798.494 1109.32C801.813 1111.3 804.472 1114.03 806.472 1117.53C808.472 1121.01 809.472 1125 809.472 1129.5C809.472 1133.82 808.506 1137.77 806.574 1141.36C804.642 1144.93 801.926 1147.77 798.426 1149.89C794.949 1151.98 790.858 1153 786.153 1152.95ZM786.153 1145.45C789.017 1145.45 791.585 1144.74 793.858 1143.31C796.153 1141.87 797.96 1139.95 799.278 1137.55C800.619 1135.14 801.29 1132.45 801.29 1129.5C801.29 1126.61 800.642 1123.99 799.347 1121.62C798.074 1119.24 796.313 1117.34 794.063 1115.93C791.835 1114.52 789.29 1113.82 786.426 1113.82C784.267 1113.82 782.256 1114.25 780.392 1115.11C778.528 1115.95 776.892 1117.11 775.483 1118.59C774.097 1120.07 773.006 1121.76 772.21 1123.67C771.415 1125.56 771.017 1127.55 771.017 1129.64C771.017 1132.41 771.665 1135 772.96 1137.41C774.278 1139.82 776.074 1141.76 778.347 1143.24C780.642 1144.72 783.244 1145.45 786.153 1145.45Z" fill="#0007B3"/>
<rect x="844.53" y="1067" width="100" height="100" fill="#4A03DF"/>
<path d="M955.726 1152V1082.18H964.18V1113.27H1001.41V1082.18H1009.86V1152H1001.41V1120.77H964.18V1152H955.726ZM1017.19 1082.18H1027.28L1051.01 1140.14H1051.82L1075.55 1082.18H1085.64V1152H1077.73V1098.95H1077.05L1055.23 1152H1047.6L1025.78 1098.95H1025.1V1152H1017.19V1082.18ZM1121.9 1113.34V1120.84H1091.36V1113.34H1121.9ZM1150.87 1082.18V1152H1142.41V1091.05H1142.01L1124.96 1102.36V1093.77L1142.41 1082.18H1150.87ZM1185.89 1082.18V1152H1177.44V1091.05H1177.03L1159.98 1102.36V1093.77L1177.44 1082.18H1185.89ZM1194.74 1137.68V1130.73L1225.42 1082.18H1230.46V1092.95H1227.06L1203.87 1129.64V1130.18H1245.19V1137.68H1194.74ZM1227.6 1152V1135.57V1132.33V1082.18H1235.65V1152H1227.6ZM1271.14 1152.95C1266 1152.95 1261.63 1151.56 1258.01 1148.76C1254.4 1145.94 1251.64 1141.86 1249.73 1136.52C1247.82 1131.16 1246.87 1124.68 1246.87 1117.09C1246.87 1109.55 1247.82 1103.1 1249.73 1097.76C1251.66 1092.4 1254.44 1088.31 1258.05 1085.49C1261.69 1082.65 1266.05 1081.23 1271.14 1081.23C1276.23 1081.23 1280.58 1082.65 1284.2 1085.49C1287.83 1088.31 1290.61 1092.4 1292.51 1097.76C1294.45 1103.1 1295.41 1109.55 1295.41 1117.09C1295.41 1124.68 1294.46 1131.16 1292.55 1136.52C1290.64 1141.86 1287.88 1145.94 1284.26 1148.76C1280.65 1151.56 1276.28 1152.95 1271.14 1152.95ZM1271.14 1145.45C1276.23 1145.45 1280.19 1143 1283 1138.09C1285.82 1133.18 1287.23 1126.18 1287.23 1117.09C1287.23 1111.05 1286.58 1105.9 1285.29 1101.65C1284.01 1097.4 1282.17 1094.16 1279.76 1091.93C1277.38 1089.7 1274.5 1088.59 1271.14 1088.59C1266.09 1088.59 1262.15 1091.08 1259.31 1096.06C1256.47 1101.01 1255.05 1108.02 1255.05 1117.09C1255.05 1123.14 1255.69 1128.27 1256.96 1132.5C1258.23 1136.73 1260.06 1139.94 1262.45 1142.15C1264.86 1144.35 1267.75 1145.45 1271.14 1145.45Z" fill="#0007B3"/>
<rect x="1329.37" y="1067" width="100" height="100" fill="#0075FF"/>
<path d="M1495 1082.18V1152H1486.55V1089.68H1451.37V1152H1442.91V1082.18H1495ZM1531.36 1113.34V1120.84H1500.82V1113.34H1531.36ZM1558.56 1152.95C1553.42 1152.95 1549.05 1151.56 1545.43 1148.76C1541.82 1145.94 1539.06 1141.86 1537.15 1136.52C1535.24 1131.16 1534.28 1124.68 1534.28 1117.09C1534.28 1109.55 1535.24 1103.1 1537.15 1097.76C1539.08 1092.4 1541.85 1088.31 1545.47 1085.49C1549.1 1082.65 1553.47 1081.23 1558.56 1081.23C1563.65 1081.23 1568 1082.65 1571.61 1085.49C1575.25 1088.31 1578.02 1092.4 1579.93 1097.76C1581.86 1103.1 1582.83 1109.55 1582.83 1117.09C1582.83 1124.68 1581.88 1131.16 1579.97 1136.52C1578.06 1141.86 1575.3 1145.94 1571.68 1148.76C1568.07 1151.56 1563.69 1152.95 1558.56 1152.95ZM1558.56 1145.45C1563.65 1145.45 1567.6 1143 1570.42 1138.09C1573.24 1133.18 1574.65 1126.18 1574.65 1117.09C1574.65 1111.05 1574 1105.9 1572.71 1101.65C1571.43 1097.4 1569.59 1094.16 1567.18 1091.93C1564.8 1089.7 1561.92 1088.59 1558.56 1088.59C1553.51 1088.59 1549.57 1091.08 1546.73 1096.06C1543.89 1101.01 1542.47 1108.02 1542.47 1117.09C1542.47 1123.14 1543.1 1128.27 1544.38 1132.5C1545.65 1136.73 1547.48 1139.94 1549.86 1142.15C1552.27 1144.35 1555.17 1145.45 1558.56 1145.45ZM1586.49 1152L1617.72 1090.23V1089.68H1581.72V1082.18H1626.45V1090.09L1595.36 1152H1586.49ZM1654.1 1082.18V1152H1645.64V1091.05H1645.24L1628.19 1102.36V1093.77L1645.64 1082.18H1654.1Z" fill="#0007B3"/>
<rect x="1695.42" y="1075" width="100" height="100" fill="#00FFE0"/>
<path d="M1855.98 1082.18V1152H1847.52V1089.68H1812.34V1152H1803.88V1082.18H1855.98ZM1892.34 1113.34V1120.84H1861.79V1113.34H1892.34ZM1896.78 1152L1928.01 1090.23V1089.68H1892.01V1082.18H1936.74V1090.09L1905.65 1152H1896.78ZM1961.84 1152.95C1957.34 1152.95 1953.33 1152.18 1949.81 1150.64C1946.31 1149.09 1943.53 1146.94 1941.46 1144.19C1939.41 1141.42 1938.3 1138.2 1938.12 1134.55H1946.71C1946.89 1136.8 1947.66 1138.74 1949.03 1140.38C1950.39 1141.99 1952.17 1143.24 1954.38 1144.12C1956.58 1145.01 1959.03 1145.45 1961.71 1145.45C1964.71 1145.45 1967.37 1144.93 1969.68 1143.89C1972 1142.84 1973.82 1141.39 1975.14 1139.52C1976.46 1137.66 1977.12 1135.5 1977.12 1133.05C1977.12 1130.48 1976.48 1128.22 1975.21 1126.26C1973.93 1124.28 1972.07 1122.74 1969.62 1121.62C1967.16 1120.51 1964.16 1119.95 1960.62 1119.95H1955.03V1112.45H1960.62C1963.39 1112.45 1965.82 1111.95 1967.91 1110.95C1970.03 1109.95 1971.67 1108.55 1972.85 1106.73C1974.06 1104.91 1974.66 1102.77 1974.66 1100.32C1974.66 1097.95 1974.14 1095.9 1973.09 1094.15C1972.05 1092.4 1970.57 1091.03 1968.66 1090.06C1966.78 1089.08 1964.55 1088.59 1961.98 1088.59C1959.57 1088.59 1957.3 1089.03 1955.16 1089.92C1953.05 1090.78 1951.32 1092.05 1949.98 1093.7C1948.64 1095.34 1947.91 1097.32 1947.8 1099.64H1939.62C1939.75 1095.98 1940.85 1092.77 1942.92 1090.02C1944.99 1087.25 1947.7 1085.09 1951.04 1083.55C1954.4 1082 1958.09 1081.23 1962.12 1081.23C1966.43 1081.23 1970.14 1082.1 1973.23 1083.85C1976.32 1085.58 1978.7 1087.86 1980.35 1090.7C1982.01 1093.55 1982.84 1096.61 1982.84 1099.91C1982.84 1103.84 1981.81 1107.19 1979.74 1109.97C1977.7 1112.74 1974.91 1114.66 1971.39 1115.73V1116.27C1975.8 1117 1979.24 1118.87 1981.72 1121.9C1984.2 1124.9 1985.43 1128.61 1985.43 1133.05C1985.43 1136.84 1984.4 1140.25 1982.33 1143.27C1980.29 1146.27 1977.49 1148.64 1973.95 1150.36C1970.4 1152.09 1966.37 1152.95 1961.84 1152.95ZM2012.14 1152.95C2007.46 1152.95 2003.32 1152.12 1999.73 1150.47C1996.16 1148.78 1993.38 1146.48 1991.38 1143.55C1989.38 1140.59 1988.39 1137.23 1988.41 1133.45C1988.39 1130.5 1988.97 1127.77 1990.15 1125.27C1991.33 1122.75 1992.95 1120.65 1994.99 1118.97C1997.06 1117.26 1999.37 1116.18 2001.91 1115.73V1115.32C1998.57 1114.45 1995.91 1112.58 1993.94 1109.69C1991.96 1106.78 1990.98 1103.48 1991 1099.77C1990.98 1096.23 1991.88 1093.06 1993.7 1090.26C1995.52 1087.47 1998.02 1085.26 2001.2 1083.65C2004.4 1082.03 2008.05 1081.23 2012.14 1081.23C2016.19 1081.23 2019.8 1082.03 2022.98 1083.65C2026.16 1085.26 2028.66 1087.47 2030.48 1090.26C2032.32 1093.06 2033.25 1096.23 2033.28 1099.77C2033.25 1103.48 2032.24 1106.78 2030.24 1109.69C2028.27 1112.58 2025.64 1114.45 2022.37 1115.32V1115.73C2024.89 1116.18 2027.16 1117.26 2029.19 1118.97C2031.21 1120.65 2032.82 1122.75 2034.03 1125.27C2035.23 1127.77 2035.85 1130.5 2035.87 1133.45C2035.85 1137.23 2034.82 1140.59 2032.8 1143.55C2030.8 1146.48 2028.02 1148.78 2024.45 1150.47C2020.9 1152.12 2016.8 1152.95 2012.14 1152.95ZM2012.14 1145.45C2015.3 1145.45 2018.03 1144.94 2020.32 1143.92C2022.62 1142.9 2024.39 1141.45 2025.64 1139.59C2026.89 1137.73 2027.53 1135.55 2027.55 1133.05C2027.53 1130.41 2026.85 1128.08 2025.5 1126.06C2024.16 1124.03 2022.33 1122.44 2020.02 1121.28C2017.72 1120.12 2015.1 1119.55 2012.14 1119.55C2009.16 1119.55 2006.5 1120.12 2004.16 1121.28C2001.85 1122.44 2000.02 1124.03 1998.68 1126.06C1997.36 1128.08 1996.71 1130.41 1996.73 1133.05C1996.71 1135.55 1997.31 1137.73 1998.54 1139.59C1999.79 1141.45 2001.57 1142.9 2003.89 1143.92C2006.21 1144.94 2008.96 1145.45 2012.14 1145.45ZM2012.14 1112.32C2014.64 1112.32 2016.86 1111.82 2018.79 1110.82C2020.74 1109.82 2022.28 1108.42 2023.39 1106.62C2024.5 1104.83 2025.07 1102.73 2025.1 1100.32C2025.07 1097.95 2024.52 1095.9 2023.43 1094.15C2022.33 1092.37 2020.82 1091.01 2018.89 1090.06C2016.96 1089.08 2014.71 1088.59 2012.14 1088.59C2009.53 1088.59 2007.24 1089.08 2005.29 1090.06C2003.33 1091.01 2001.82 1092.37 2000.75 1094.15C1999.69 1095.9 1999.16 1097.95 1999.19 1100.32C1999.16 1102.73 1999.7 1104.83 2000.79 1106.62C2001.9 1108.42 2003.44 1109.82 2005.39 1110.82C2007.35 1111.82 2009.6 1112.32 2012.14 1112.32Z" fill="#0007B3"/>
<rect x="2070.39" y="1068.49" width="100" height="100" fill="#14FF00"/>
<path d="M2231.56 1082.18V1152H2223.11V1089.68H2187.93V1152H2179.47V1082.18H2231.56ZM2239.02 1152V1082.18H2247.47V1113.27H2284.7V1082.18H2293.15V1152H2284.7V1120.77H2247.47V1152H2239.02ZM2329.39 1113.34V1120.84H2298.84V1113.34H2329.39ZM2356.27 1152.95C2351.77 1152.95 2347.76 1152.18 2344.24 1150.64C2340.74 1149.09 2337.96 1146.94 2335.89 1144.19C2333.84 1141.42 2332.73 1138.2 2332.55 1134.55H2341.14C2341.32 1136.8 2342.09 1138.74 2343.46 1140.38C2344.82 1141.99 2346.6 1143.24 2348.81 1144.12C2351.01 1145.01 2353.46 1145.45 2356.14 1145.45C2359.14 1145.45 2361.8 1144.93 2364.12 1143.89C2366.43 1142.84 2368.25 1141.39 2369.57 1139.52C2370.89 1137.66 2371.55 1135.5 2371.55 1133.05C2371.55 1130.48 2370.91 1128.22 2369.64 1126.26C2368.37 1124.28 2366.5 1122.74 2364.05 1121.62C2361.59 1120.51 2358.59 1119.95 2355.05 1119.95H2349.46V1112.45H2355.05C2357.82 1112.45 2360.25 1111.95 2362.34 1110.95C2364.46 1109.95 2366.1 1108.55 2367.29 1106.73C2368.49 1104.91 2369.09 1102.77 2369.09 1100.32C2369.09 1097.95 2368.57 1095.9 2367.52 1094.15C2366.48 1092.4 2365 1091.03 2363.09 1090.06C2361.21 1089.08 2358.98 1088.59 2356.41 1088.59C2354 1088.59 2351.73 1089.03 2349.59 1089.92C2347.48 1090.78 2345.75 1092.05 2344.41 1093.7C2343.07 1095.34 2342.34 1097.32 2342.23 1099.64H2334.05C2334.18 1095.98 2335.29 1092.77 2337.35 1090.02C2339.42 1087.25 2342.13 1085.09 2345.47 1083.55C2348.83 1082 2352.52 1081.23 2356.55 1081.23C2360.87 1081.23 2364.57 1082.1 2367.66 1083.85C2370.75 1085.58 2373.13 1087.86 2374.79 1090.7C2376.44 1093.55 2377.27 1096.61 2377.27 1099.91C2377.27 1103.84 2376.24 1107.19 2374.17 1109.97C2372.13 1112.74 2369.34 1114.66 2365.82 1115.73V1116.27C2370.23 1117 2373.67 1118.87 2376.15 1121.9C2378.63 1124.9 2379.87 1128.61 2379.87 1133.05C2379.87 1136.84 2378.83 1140.25 2376.76 1143.27C2374.72 1146.27 2371.92 1148.64 2368.38 1150.36C2364.83 1152.09 2360.8 1152.95 2356.27 1152.95ZM2406.44 1081.23C2409.3 1081.25 2412.16 1081.8 2415.03 1082.86C2417.89 1083.93 2420.5 1085.7 2422.87 1088.18C2425.23 1090.64 2427.13 1093.99 2428.56 1098.24C2429.99 1102.49 2430.71 1107.82 2430.71 1114.23C2430.71 1120.43 2430.12 1125.94 2428.94 1130.76C2427.78 1135.56 2426.09 1139.6 2423.89 1142.9C2421.71 1146.19 2419.05 1148.69 2415.91 1150.4C2412.8 1152.1 2409.28 1152.95 2405.34 1152.95C2401.44 1152.95 2397.95 1152.18 2394.88 1150.64C2391.83 1149.07 2389.33 1146.9 2387.38 1144.12C2385.45 1141.33 2384.21 1138.09 2383.66 1134.41H2391.98C2392.73 1137.61 2394.22 1140.26 2396.45 1142.35C2398.7 1144.42 2401.66 1145.45 2405.34 1145.45C2410.73 1145.45 2414.98 1143.1 2418.09 1138.4C2421.23 1133.69 2422.8 1127.05 2422.8 1118.45H2422.25C2420.98 1120.36 2419.47 1122.01 2417.72 1123.4C2415.97 1124.78 2414.03 1125.85 2411.89 1126.6C2409.75 1127.35 2407.48 1127.73 2405.07 1127.73C2401.07 1127.73 2397.4 1126.74 2394.06 1124.76C2390.74 1122.76 2388.08 1120.02 2386.08 1116.55C2384.11 1113.05 2383.12 1109.05 2383.12 1104.55C2383.12 1100.27 2384.07 1096.36 2385.98 1092.82C2387.91 1089.25 2390.62 1086.41 2394.09 1084.3C2397.59 1082.18 2401.71 1081.16 2406.44 1081.23ZM2406.44 1088.73C2403.57 1088.73 2400.99 1089.44 2398.7 1090.88C2396.42 1092.28 2394.62 1094.19 2393.28 1096.6C2391.96 1098.99 2391.3 1101.64 2391.3 1104.55C2391.3 1107.45 2391.94 1110.1 2393.21 1112.49C2394.5 1114.85 2396.27 1116.74 2398.49 1118.15C2400.74 1119.53 2403.3 1120.23 2406.16 1120.23C2408.32 1120.23 2410.33 1119.81 2412.2 1118.97C2414.06 1118.1 2415.69 1116.93 2417.07 1115.45C2418.48 1113.95 2419.58 1112.26 2420.38 1110.38C2421.17 1108.47 2421.57 1106.48 2421.57 1104.41C2421.57 1101.68 2420.91 1099.12 2419.59 1096.74C2418.3 1094.35 2416.5 1092.42 2414.21 1090.94C2411.94 1089.47 2409.34 1088.73 2406.44 1088.73Z" fill="#0007B3"/>
<rect x="2465.98" y="1059" width="100" height="100" fill="#FFF500"/>
<path d="M2626.87 1082.18V1152H2618.41V1089.68H2583.23V1152H2574.77V1082.18H2626.87ZM2634.32 1152V1082.18H2642.77V1113.27H2680V1082.18H2688.46V1152H2680V1120.77H2642.77V1152H2634.32ZM2724.69 1113.34V1120.84H2694.15V1113.34H2724.69ZM2727.47 1137.68V1130.73L2758.16 1082.18H2763.2V1092.95H2759.79L2736.61 1129.64V1130.18H2777.93V1137.68H2727.47ZM2760.34 1152V1135.57V1132.33V1082.18H2768.38V1152H2760.34ZM2803.88 1152.95C2798.74 1152.95 2794.37 1151.56 2790.75 1148.76C2787.14 1145.94 2784.38 1141.86 2782.47 1136.52C2780.56 1131.16 2779.6 1124.68 2779.6 1117.09C2779.6 1109.55 2780.56 1103.1 2782.47 1097.76C2784.4 1092.4 2787.17 1088.31 2790.79 1085.49C2794.42 1082.65 2798.79 1081.23 2803.88 1081.23C2808.97 1081.23 2813.32 1082.65 2816.93 1085.49C2820.57 1088.31 2823.34 1092.4 2825.25 1097.76C2827.18 1103.1 2828.15 1109.55 2828.15 1117.09C2828.15 1124.68 2827.2 1131.16 2825.29 1136.52C2823.38 1141.86 2820.62 1145.94 2817 1148.76C2813.39 1151.56 2809.01 1152.95 2803.88 1152.95ZM2803.88 1145.45C2808.97 1145.45 2812.92 1143 2815.74 1138.09C2818.56 1133.18 2819.97 1126.18 2819.97 1117.09C2819.97 1111.05 2819.32 1105.9 2818.03 1101.65C2816.75 1097.4 2814.91 1094.16 2812.5 1091.93C2810.12 1089.7 2807.24 1088.59 2803.88 1088.59C2798.83 1088.59 2794.89 1091.08 2792.05 1096.06C2789.21 1101.01 2787.79 1108.02 2787.79 1117.09C2787.79 1123.14 2788.42 1128.27 2789.7 1132.5C2790.97 1136.73 2792.8 1139.94 2795.18 1142.15C2797.59 1144.35 2800.49 1145.45 2803.88 1145.45Z" fill="#0007B3"/>
<rect x="2862.28" y="1066" width="100" height="100" fill="#FFCA10"/>
<path d="M3023.39 1082.18V1152H3014.93V1089.68H2979.75V1152H2971.3V1082.18H3023.39ZM3030.84 1152V1082.18H3039.3V1113.27H3076.52V1082.18H3084.98V1152H3076.52V1120.77H3039.3V1152H3030.84ZM3091.21 1152V1099.64H3132.4V1152H3124.35V1107.14H3099.26V1152H3091.21ZM3167.49 1118.32V1125.82H3136.94V1118.32H3167.49ZM3194.37 1152.95C3189.87 1152.95 3185.86 1152.18 3182.34 1150.64C3178.84 1149.09 3176.06 1146.94 3173.99 1144.19C3171.94 1141.42 3170.83 1138.2 3170.65 1134.55H3179.24C3179.42 1136.8 3180.19 1138.74 3181.56 1140.38C3182.92 1141.99 3184.7 1143.24 3186.91 1144.12C3189.11 1145.01 3191.56 1145.45 3194.24 1145.45C3197.24 1145.45 3199.9 1144.93 3202.21 1143.89C3204.53 1142.84 3206.35 1141.39 3207.67 1139.52C3208.99 1137.66 3209.65 1135.5 3209.65 1133.05C3209.65 1130.48 3209.01 1128.22 3207.74 1126.26C3206.46 1124.28 3204.6 1122.74 3202.15 1121.62C3199.69 1120.51 3196.69 1119.95 3193.15 1119.95H3187.56V1112.45H3193.15C3195.92 1112.45 3198.35 1111.95 3200.44 1110.95C3202.56 1109.95 3204.2 1108.55 3205.39 1106.73C3206.59 1104.91 3207.19 1102.77 3207.19 1100.32C3207.19 1097.95 3206.67 1095.9 3205.62 1094.15C3204.58 1092.4 3203.1 1091.03 3201.19 1090.06C3199.31 1089.08 3197.08 1088.59 3194.51 1088.59C3192.1 1088.59 3189.83 1089.03 3187.69 1089.92C3185.58 1090.78 3183.85 1092.05 3182.51 1093.7C3181.17 1095.34 3180.44 1097.32 3180.33 1099.64H3172.15C3172.28 1095.98 3173.39 1092.77 3175.45 1090.02C3177.52 1087.25 3180.23 1085.09 3183.57 1083.55C3186.93 1082 3190.62 1081.23 3194.65 1081.23C3198.96 1081.23 3202.67 1082.1 3205.76 1083.85C3208.85 1085.58 3211.23 1087.86 3212.89 1090.7C3214.54 1093.55 3215.37 1096.61 3215.37 1099.91C3215.37 1103.84 3214.34 1107.19 3212.27 1109.97C3210.23 1112.74 3207.44 1114.66 3203.92 1115.73V1116.27C3208.33 1117 3211.77 1118.87 3214.25 1121.9C3216.73 1124.9 3217.96 1128.61 3217.96 1133.05C3217.96 1136.84 3216.93 1140.25 3214.86 1143.27C3212.82 1146.27 3210.02 1148.64 3206.48 1150.36C3202.93 1152.09 3198.9 1152.95 3194.37 1152.95ZM3244.54 1081.23C3247.4 1081.25 3250.26 1081.8 3253.13 1082.86C3255.99 1083.93 3258.6 1085.7 3260.97 1088.18C3263.33 1090.64 3265.23 1093.99 3266.66 1098.24C3268.09 1102.49 3268.81 1107.82 3268.81 1114.23C3268.81 1120.43 3268.22 1125.94 3267.04 1130.76C3265.88 1135.56 3264.19 1139.6 3261.99 1142.9C3259.81 1146.19 3257.15 1148.69 3254.01 1150.4C3250.9 1152.1 3247.38 1152.95 3243.44 1152.95C3239.54 1152.95 3236.05 1152.18 3232.98 1150.64C3229.93 1149.07 3227.43 1146.9 3225.48 1144.12C3223.55 1141.33 3222.31 1138.09 3221.76 1134.41H3230.08C3230.83 1137.61 3232.32 1140.26 3234.55 1142.35C3236.8 1144.42 3239.76 1145.45 3243.44 1145.45C3248.83 1145.45 3253.08 1143.1 3256.19 1138.4C3259.33 1133.69 3260.9 1127.05 3260.9 1118.45H3260.35C3259.08 1120.36 3257.57 1122.01 3255.82 1123.4C3254.07 1124.78 3252.13 1125.85 3249.99 1126.6C3247.85 1127.35 3245.58 1127.73 3243.17 1127.73C3239.17 1127.73 3235.5 1126.74 3232.16 1124.76C3228.84 1122.76 3226.18 1120.02 3224.18 1116.55C3222.21 1113.05 3221.22 1109.05 3221.22 1104.55C3221.22 1100.27 3222.17 1096.36 3224.08 1092.82C3226.01 1089.25 3228.72 1086.41 3232.19 1084.3C3235.69 1082.18 3239.81 1081.16 3244.54 1081.23ZM3244.54 1088.73C3241.67 1088.73 3239.09 1089.44 3236.8 1090.88C3234.52 1092.28 3232.72 1094.19 3231.38 1096.6C3230.06 1098.99 3229.4 1101.64 3229.4 1104.55C3229.4 1107.45 3230.04 1110.1 3231.31 1112.49C3232.6 1114.85 3234.36 1116.74 3236.59 1118.15C3238.84 1119.53 3241.4 1120.23 3244.26 1120.23C3246.42 1120.23 3248.43 1119.81 3250.3 1118.97C3252.16 1118.1 3253.79 1116.93 3255.17 1115.45C3256.58 1113.95 3257.68 1112.26 3258.48 1110.38C3259.27 1108.47 3259.67 1106.48 3259.67 1104.41C3259.67 1101.68 3259.01 1099.12 3257.69 1096.74C3256.4 1094.35 3254.6 1092.42 3252.31 1090.94C3250.04 1089.47 3247.44 1088.73 3244.54 1088.73Z" fill="#0007B3"/>
<rect x="3303.8" y="1067" width="100" height="100" fill="#FF9110"/>
<path d="M3464.48 1082.18V1152H3456.03V1089.68H3420.85V1152H3412.39V1082.18H3464.48ZM3471.94 1152V1082.18H3480.39V1113.27H3517.62V1082.18H3526.07V1152H3517.62V1120.77H3480.39V1152H3471.94ZM3527.67 1152V1144.5H3529.58C3531.15 1144.5 3532.46 1144.19 3533.5 1143.58C3534.55 1142.94 3535.39 1141.84 3536.03 1140.27C3536.69 1138.68 3537.19 1136.48 3537.53 1133.66C3537.89 1130.82 3538.15 1127.2 3538.31 1122.82L3539.26 1099.64H3574.17V1152H3566.13V1107.14H3546.9L3546.08 1125.82C3545.9 1130.11 3545.51 1133.9 3544.92 1137.17C3544.36 1140.42 3543.48 1143.15 3542.3 1145.35C3541.14 1147.56 3539.59 1149.22 3537.66 1150.33C3535.73 1151.44 3533.31 1152 3530.4 1152H3527.67ZM3609.34 1118.32V1125.82H3578.79V1118.32H3609.34ZM3636.22 1152.95C3631.72 1152.95 3627.71 1152.18 3624.19 1150.64C3620.69 1149.09 3617.9 1146.94 3615.83 1144.19C3613.79 1141.42 3612.68 1138.2 3612.49 1134.55H3621.08C3621.27 1136.8 3622.04 1138.74 3623.4 1140.38C3624.77 1141.99 3626.55 1143.24 3628.76 1144.12C3630.96 1145.01 3633.4 1145.45 3636.08 1145.45C3639.08 1145.45 3641.74 1144.93 3644.06 1143.89C3646.38 1142.84 3648.2 1141.39 3649.52 1139.52C3650.83 1137.66 3651.49 1135.5 3651.49 1133.05C3651.49 1130.48 3650.86 1128.22 3649.58 1126.26C3648.31 1124.28 3646.45 1122.74 3643.99 1121.62C3641.54 1120.51 3638.54 1119.95 3634.99 1119.95H3629.4V1112.45H3634.99C3637.77 1112.45 3640.2 1111.95 3642.29 1110.95C3644.4 1109.95 3646.05 1108.55 3647.23 1106.73C3648.44 1104.91 3649.04 1102.77 3649.04 1100.32C3649.04 1097.95 3648.52 1095.9 3647.47 1094.15C3646.43 1092.4 3644.95 1091.03 3643.04 1090.06C3641.15 1089.08 3638.93 1088.59 3636.36 1088.59C3633.95 1088.59 3631.68 1089.03 3629.54 1089.92C3627.43 1090.78 3625.7 1092.05 3624.36 1093.7C3623.02 1095.34 3622.29 1097.32 3622.18 1099.64H3613.99C3614.13 1095.98 3615.23 1092.77 3617.3 1090.02C3619.37 1087.25 3622.07 1085.09 3625.41 1083.55C3628.78 1082 3632.47 1081.23 3636.49 1081.23C3640.81 1081.23 3644.52 1082.1 3647.61 1083.85C3650.7 1085.58 3653.07 1087.86 3654.73 1090.7C3656.39 1093.55 3657.22 1096.61 3657.22 1099.91C3657.22 1103.84 3656.19 1107.19 3654.12 1109.97C3652.07 1112.74 3649.29 1114.66 3645.77 1115.73V1116.27C3650.18 1117 3653.62 1118.87 3656.1 1121.9C3658.57 1124.9 3659.81 1128.61 3659.81 1133.05C3659.81 1136.84 3658.78 1140.25 3656.71 1143.27C3654.66 1146.27 3651.87 1148.64 3648.32 1150.36C3644.78 1152.09 3640.74 1152.95 3636.22 1152.95ZM3686.38 1081.23C3689.25 1081.25 3692.11 1081.8 3694.97 1082.86C3697.84 1083.93 3700.45 1085.7 3702.81 1088.18C3705.18 1090.64 3707.08 1093.99 3708.51 1098.24C3709.94 1102.49 3710.66 1107.82 3710.66 1114.23C3710.66 1120.43 3710.06 1125.94 3708.88 1130.76C3707.72 1135.56 3706.04 1139.6 3703.84 1142.9C3701.66 1146.19 3699 1148.69 3695.86 1150.4C3692.75 1152.1 3689.22 1152.95 3685.29 1152.95C3681.38 1152.95 3677.89 1152.18 3674.83 1150.64C3671.78 1149.07 3669.28 1146.9 3667.33 1144.12C3665.39 1141.33 3664.16 1138.09 3663.61 1134.41H3671.93C3672.68 1137.61 3674.17 1140.26 3676.39 1142.35C3678.64 1144.42 3681.61 1145.45 3685.29 1145.45C3690.68 1145.45 3694.93 1143.1 3698.04 1138.4C3701.18 1133.69 3702.75 1127.05 3702.75 1118.45H3702.2C3700.93 1120.36 3699.42 1122.01 3697.67 1123.4C3695.92 1124.78 3693.97 1125.85 3691.84 1126.6C3689.7 1127.35 3687.43 1127.73 3685.02 1127.73C3681.02 1127.73 3677.35 1126.74 3674.01 1124.76C3670.69 1122.76 3668.03 1120.02 3666.03 1116.55C3664.05 1113.05 3663.06 1109.05 3663.06 1104.55C3663.06 1100.27 3664.02 1096.36 3665.93 1092.82C3667.86 1089.25 3670.56 1086.41 3674.04 1084.3C3677.54 1082.18 3681.66 1081.16 3686.38 1081.23ZM3686.38 1088.73C3683.52 1088.73 3680.94 1089.44 3678.64 1090.88C3676.37 1092.28 3674.56 1094.19 3673.22 1096.6C3671.91 1098.99 3671.25 1101.64 3671.25 1104.55C3671.25 1107.45 3671.88 1110.1 3673.16 1112.49C3674.45 1114.85 3676.21 1116.74 3678.44 1118.15C3680.69 1119.53 3683.25 1120.23 3686.11 1120.23C3688.27 1120.23 3690.28 1119.81 3692.14 1118.97C3694.01 1118.1 3695.63 1116.93 3697.02 1115.45C3698.43 1113.95 3699.53 1112.26 3700.33 1110.38C3701.12 1108.47 3701.52 1106.48 3701.52 1104.41C3701.52 1101.68 3700.86 1099.12 3699.54 1096.74C3698.25 1094.35 3696.45 1092.42 3694.16 1090.94C3691.88 1089.47 3689.29 1088.73 3686.38 1088.73Z" fill="#0007B3"/>
<rect x="3745.9" y="1067" width="100" height="100" fill="#FF1010"/>
<path d="M3906.58 1082.18V1152H3898.13V1089.68H3862.95V1152H3854.49V1082.18H3906.58ZM3914.04 1152V1082.18H3922.49V1113.27H3959.72V1082.18H3968.17V1152H3959.72V1120.77H3922.49V1152H3914.04ZM3974.41 1152V1099.64H4015.59V1152H4007.54V1107.14H3982.45V1152H3974.41ZM4050.68 1118.32V1125.82H4020.14V1118.32H4050.68ZM4053.47 1137.68V1130.73L4084.15 1082.18H4089.19V1092.95H4085.79L4062.6 1129.64V1130.18H4103.92V1137.68H4053.47ZM4086.33 1152V1135.57V1132.33V1082.18H4094.38V1152H4086.33ZM4129.87 1152.95C4124.73 1152.95 4120.36 1151.56 4116.74 1148.76C4113.13 1145.94 4110.37 1141.86 4108.46 1136.52C4106.55 1131.16 4105.6 1124.68 4105.6 1117.09C4105.6 1109.55 4106.55 1103.1 4108.46 1097.76C4110.39 1092.4 4113.17 1088.31 4116.78 1085.49C4120.42 1082.65 4124.78 1081.23 4129.87 1081.23C4134.96 1081.23 4139.31 1082.65 4142.93 1085.49C4146.56 1088.31 4149.34 1092.4 4151.24 1097.76C4153.18 1103.1 4154.14 1109.55 4154.14 1117.09C4154.14 1124.68 4153.19 1131.16 4151.28 1136.52C4149.37 1141.86 4146.61 1145.94 4142.99 1148.76C4139.38 1151.56 4135.01 1152.95 4129.87 1152.95ZM4129.87 1145.45C4134.96 1145.45 4138.92 1143 4141.73 1138.09C4144.55 1133.18 4145.96 1126.18 4145.96 1117.09C4145.96 1111.05 4145.31 1105.9 4144.02 1101.65C4142.74 1097.4 4140.9 1094.16 4138.49 1091.93C4136.11 1089.7 4133.23 1088.59 4129.87 1088.59C4124.82 1088.59 4120.88 1091.08 4118.04 1096.06C4115.2 1101.01 4113.78 1108.02 4113.78 1117.09C4113.78 1123.14 4114.42 1128.27 4115.69 1132.5C4116.96 1136.73 4118.79 1139.94 4121.18 1142.15C4123.59 1144.35 4126.48 1145.45 4129.87 1145.45Z" fill="#0007B3"/>
<rect x="4188" y="1067" width="100" height="100" fill="#850101"/>
<path d="M4348.68 1082.18V1152H4340.23V1089.68H4305.04V1152H4296.59V1082.18H4348.68ZM4356.14 1152V1082.18H4364.59V1113.27H4401.82V1082.18H4410.27V1152H4401.82V1120.77H4364.59V1152H4356.14ZM4416.51 1152V1099.64H4457.69V1152H4449.64V1107.14H4424.55V1152H4416.51ZM4492.78 1118.32V1125.82H4462.24V1118.32H4492.78ZM4495.57 1137.68V1130.73L4526.25 1082.18H4531.29V1092.95H4527.88L4504.7 1129.64V1130.18H4546.02V1137.68H4495.57ZM4528.43 1152V1135.57V1132.33V1082.18H4536.47V1152H4528.43ZM4571.97 1152.95C4566.83 1152.95 4562.46 1151.56 4558.84 1148.76C4555.23 1145.94 4552.47 1141.86 4550.56 1136.52C4548.65 1131.16 4547.7 1124.68 4547.7 1117.09C4547.7 1109.55 4548.65 1103.1 4550.56 1097.76C4552.49 1092.4 4555.26 1088.31 4558.88 1085.49C4562.51 1082.65 4566.88 1081.23 4571.97 1081.23C4577.06 1081.23 4581.41 1082.65 4585.03 1085.49C4588.66 1088.31 4591.43 1092.4 4593.34 1097.76C4595.28 1103.1 4596.24 1109.55 4596.24 1117.09C4596.24 1124.68 4595.29 1131.16 4593.38 1136.52C4591.47 1141.86 4588.71 1145.94 4585.09 1148.76C4581.48 1151.56 4577.1 1152.95 4571.97 1152.95ZM4571.97 1145.45C4577.06 1145.45 4581.01 1143 4583.83 1138.09C4586.65 1133.18 4588.06 1126.18 4588.06 1117.09C4588.06 1111.05 4587.41 1105.9 4586.12 1101.65C4584.84 1097.4 4583 1094.16 4580.59 1091.93C4578.21 1089.7 4575.33 1088.59 4571.97 1088.59C4566.92 1088.59 4562.98 1091.08 4560.14 1096.06C4557.3 1101.01 4555.88 1108.02 4555.88 1117.09C4555.88 1123.14 4556.51 1128.27 4557.79 1132.5C4559.06 1136.73 4560.89 1139.94 4563.28 1142.15C4565.68 1144.35 4568.58 1145.45 4571.97 1145.45Z" fill="#0007B3"/>
</svg>
