<?xml version="1.0"?>
<svg width="629.59782" height="188.9253" xmlns="http://www.w3.org/2000/svg" xmlns:svg="http://www.w3.org/2000/svg">
 <desc>mainlogo.dxf - scale = 1.000000, origin = (0.000000, 0.000000), method = manual</desc>
 <defs>
  <pattern height="8" id="Hatch" patternUnits="userSpaceOnUse" width="8" x="0" y="0">
   <path d="m8,4l-4,4" id="path2126" stroke="#000000" stroke-width="0.25"/>
   <path d="m6,2l-4,4" id="path2128" stroke="#000000" stroke-width="0.25"/>
   <path d="m4,0l-4,4" id="path2130" stroke="#000000" stroke-width="0.25"/>
  </pattern>
 </defs>
 <g class="layer">
  <title>Layer 1</title>
  <g id="g2230">
   <path d="m4.82656,48.26559l0,-43.43903l87.2146,0l87.2146,0l-43.42261,43.43903l-43.42261,43.43903l-43.79199,0l-43.79199,0l0,-43.43903z" fill="#ffffff" id="path3004" stroke="#000000" stroke-dashoffset="0" stroke-width="0"/>
   <path d="m4.82656,140.65971l0,-43.43903l43.43903,0l43.43903,0l0,43.43903l0,43.43903l-43.43903,0l-43.43903,0l0,-43.43903z" fill="#ffffff" id="path3144"/>
   <path d="m97.22068,140.30675l0,-43.79199l43.43903,-43.42261l43.43903,-43.42261l0,87.2146l0,87.2146l-43.43903,0l-43.43903,0l0,-43.79199z" fill="#ffffff" id="path3146"/>
   <path d="m202.02596,-839.13171l0,-79.98297l79.98297,0l79.98297,0l0,21.37476l0,21.37476l-58.60821,0l-58.60821,0l0,19.99574l0,19.99574l33.78591,0l33.78591,0l0,21.37476l0,21.37476l-33.78591,0l-33.78591,0l0,17.23771l0,17.23771l-21.37476,0l-21.37476,0l0,-79.98297z" fill="#ffffff" id="path3148" transform="translate(0 933.594)"/>
   <path d="m363.35092,-838.75481l34.26132,-79.67037l23.12913,0l23.12913,0l33.50889,77.90542c18.4299,42.84798 33.80813,78.68518 34.17385,79.63822c0.51751,1.34864 -4.46645,1.7328 -22.48078,1.7328l-23.14569,0l-6.67292,-15.51394c-3.6701,-8.53266 -7.28344,-16.3015 -8.02963,-17.26407c-1.03824,-1.33932 -8.34722,-1.66302 -31.13729,-1.37902l-29.78057,0.37112l-7.19364,16.5482l-7.19364,16.5482l-23.41474,0.3769l-23.41475,0.3769l34.26133,-79.67036z" fill="#ffffff" id="path3150" transform="translate(0 933.594)"/>
   <path d="m504.03063,-867.40155l0,-51.71313l10.34263,0l10.34262,0l0,51.71312l0,51.71313l-10.34262,0l-10.34263,0l0,-51.71312z" fill="#ffffff" id="path3152" transform="translate(0 933.594)"/>
   <path d="m549.53818,-867.40155l0,-51.71313l9.65312,0l9.65312,0l0,51.71312l0,51.71313l-9.65312,0l-9.65312,0l0,-51.71312z" fill="#ffffff" id="path3154" transform="translate(0 933.594)"/>
   <path d="m595.04574,-867.40155l0,-51.71313l9.65312,0l9.65311,0l0,51.71312l0,51.71313l-9.65311,0l-9.65312,0l0,-51.71312z" fill="#ffffff" id="path3156" transform="translate(0 933.594)"/>
  </g>
 </g>
</svg>